WorkSans-Regular.ufo
<glyph name="dollar" format="2">
  <advance width="615"/>
  <unicode hex="0024"/>
  <outline>
    <contour>
      <point x="348" y="-100" type="line"/>
      <point x="348" y="1" type="line"/>
      <point x="473" y="11"/>
      <point x="555" y="79"/>
      <point x="555" y="183" type="curve" smooth="yes"/>
      <point x="555" y="304"/>
      <point x="451" y="333"/>
      <point x="348" y="355" type="curve"/>
      <point x="348" y="590" type="line"/>
      <point x="418" y="581"/>
      <point x="456" y="545"/>
      <point x="489" y="469" type="curve"/>
      <point x="554" y="520" type="line"/>
      <point x="508" y="605"/>
      <point x="449" y="650"/>
      <point x="348" y="658" type="curve"/>
      <point x="348" y="760" type="line"/>
      <point x="279" y="760" type="line"/>
      <point x="279" y="659" type="line"/>
      <point x="150" y="648"/>
      <point x="73" y="568"/>
      <point x="73" y="469" type="curve" smooth="yes"/>
      <point x="73" y="351"/>
      <point x="176" y="323"/>
      <point x="279" y="301" type="curve"/>
      <point x="279" y="69" type="line"/>
      <point x="203" y="83"/>
      <point x="136" y="135"/>
      <point x="121" y="209" type="curve"/>
      <point x="47" y="171" type="line"/>
      <point x="82" y="70"/>
      <point x="163" y="11"/>
      <point x="279" y="1" type="curve"/>
      <point x="279" y="-100" type="line"/>
    </contour>
    <contour>
      <point x="348" y="286" type="line"/>
      <point x="421" y="269"/>
      <point x="480" y="244"/>
      <point x="480" y="177" type="curve" smooth="yes"/>
      <point x="480" y="107"/>
      <point x="429" y="74"/>
      <point x="348" y="67" type="curve"/>
    </contour>
    <contour>
      <point x="149" y="475" type="curve" smooth="yes"/>
      <point x="149" y="541"/>
      <point x="193" y="583"/>
      <point x="279" y="591" type="curve"/>
      <point x="279" y="369" type="line"/>
      <point x="207" y="386"/>
      <point x="149" y="410"/>
    </contour>
  </outline>
</glyph>
<glyph name="at" format="2">
  <advance width="985"/>
  <unicode hex="0040"/>
  <outline>
    <contour>
      <point x="66" y="223" type="curve" smooth="yes"/>
      <point x="66" y="-28"/>
      <point x="232" y="-195"/>
      <point x="484" y="-195" type="curve" smooth="yes"/>
      <point x="614" y="-195"/>
      <point x="678" y="-157"/>
      <point x="735" y="-117" type="curve"/>
      <point x="700" y="-71" type="line"/>
      <point x="655" y="-103"/>
      <point x="600" y="-136"/>
      <point x="484" y="-136" type="curve" smooth="yes"/>
      <point x="285" y="-136"/>
      <point x="133" y="0"/>
      <point x="133" y="223" type="curve" smooth="yes"/>
      <point x="133" y="453"/>
      <point x="274" y="601"/>
      <point x="507" y="601" type="curve" smooth="yes"/>
      <point x="737" y="601"/>
      <point x="853" y="458"/>
      <point x="853" y="260" type="curve" smooth="yes"/>
      <point x="853" y="121"/>
      <point x="814" y="51"/>
      <point x="743" y="51" type="curve" smooth="yes"/>
      <point x="687" y="51"/>
      <point x="675" y="95"/>
      <point x="681" y="148" type="curve" smooth="yes"/>
      <point x="720" y="459" type="line"/>
      <point x="668" y="459" type="line"/>
      <point x="648" y="378" type="line"/>
      <point x="629" y="427"/>
      <point x="587" y="465"/>
      <point x="498" y="465" type="curve" smooth="yes"/>
      <point x="383" y="465"/>
      <point x="267" y="370"/>
      <point x="267" y="203" type="curve" smooth="yes"/>
      <point x="267" y="75"/>
      <point x="344" y="0"/>
      <point x="438" y="0" type="curve" smooth="yes"/>
      <point x="519" y="0"/>
      <point x="580" y="34"/>
      <point x="615" y="87" type="curve"/>
      <point x="625" y="42"/>
      <point x="657" y="-5"/>
      <point x="731" y="-5" type="curve" smooth="yes"/>
      <point x="842" y="-5"/>
      <point x="915" y="96"/>
      <point x="915" y="260" type="curve" smooth="yes"/>
      <point x="915" y="480"/>
      <point x="788" y="660"/>
      <point x="507" y="660" type="curve" smooth="yes"/>
      <point x="240" y="660"/>
      <point x="66" y="481"/>
    </contour>
    <contour>
      <point x="627" y="255" type="curve" smooth="yes"/>
      <point x="621" y="206" type="line" smooth="yes"/>
      <point x="609" y="108"/>
      <point x="537" y="60"/>
      <point x="462" y="60" type="curve" smooth="yes"/>
      <point x="383" y="60"/>
      <point x="339" y="115"/>
      <point x="339" y="207" type="curve" smooth="yes"/>
      <point x="339" y="333"/>
      <point x="405" y="406"/>
      <point x="506" y="406" type="curve" smooth="yes"/>
      <point x="608" y="406"/>
      <point x="637" y="339"/>
    </contour>
  </outline>
</glyph>
<glyph name="T" format="2">
  <advance width="604"/>
  <unicode hex="0054"/>
  <anchor x="331" y="0" name="bottomC"/>
  <anchor x="302" y="660" name="top"/>
  <anchor x="342" y="0" name="ogonek"/>
  <anchor x="302" y="330" name="center"/>
  <anchor x="302" y="0" name="bottom"/>
  <outline>
    <contour>
      <point x="262" y="660" type="line"/>
      <point x="262" y="0" type="line"/>
      <point x="342" y="0" type="line"/>
      <point x="342" y="660" type="line"/>
    </contour>
    <contour>
      <point x="32" y="660" type="line"/>
      <point x="32" y="585" type="line"/>
      <point x="572" y="585" type="line"/>
      <point x="572" y="660" type="line"/>
    </contour>
  </outline>
</glyph>
<glyph name="V" format="2">
  <advance width="648"/>
  <unicode hex="0056"/>
  <anchor x="338" y="0" name="bottomC"/>
  <anchor x="324" y="660" name="top"/>
  <anchor x="370" y="0" name="ogonek"/>
  <anchor x="324" y="0" name="bottom"/>
  <outline>
    <contour>
      <point x="534" y="660" type="line"/>
      <point x="366" y="203" type="line"/>
      <point x="324" y="73" type="line"/>
      <point x="282" y="204" type="line"/>
      <point x="114" y="660" type="line"/>
      <point x="28" y="660" type="line"/>
      <point x="279" y="0" type="line"/>
      <point x="370" y="0" type="line"/>
      <point x="620" y="660" type="line"/>
    </contour>
  </outline>
</glyph>
<glyph name="bracketleft" format="2">
  <advance width="348"/>
  <unicode hex="005B"/>
  <outline>
    <contour>
      <point x="87" y="730" type="line"/>
      <point x="87" y="-168" type="line"/>
      <point x="162" y="-168" type="line"/>
      <point x="162" y="730" type="line"/>
    </contour>
    <contour>
      <point x="129" y="-98" type="line"/>
      <point x="129" y="-168" type="line"/>
      <point x="315" y="-168" type="line"/>
      <point x="315" y="-98" type="line"/>
    </contour>
    <contour>
      <point x="129" y="730" type="line"/>
      <point x="129" y="660" type="line"/>
      <point x="315" y="660" type="line"/>
      <point x="315" y="730" type="line"/>
    </contour>
  </outline>
</glyph>
<glyph name="asciicircum" format="2">
  <advance width="560"/>
  <unicode hex="005E"/>
  <outline>
    <contour>
      <point x="108" y="355" type="line"/>
      <point x="318" y="730" type="line"/>
      <point x="242" y="730" type="line"/>
      <point x="27" y="355" type="line"/>
    </contour>
    <contour>
      <point x="318" y="730" type="line"/>
      <point x="242" y="730" type="line"/>
      <point x="452" y="355" type="line"/>
      <point x="533" y="355" type="line"/>
    </contour>
  </outline>
</glyph>
<glyph name="underscore" format="2">
  <advance width="539"/>
  <unicode hex="005F"/>
  <outline>
    <contour>
      <point x="0" y="-97" type="line"/>
      <point x="0" y="-172" type="line"/>
      <point x="539" y="-172" type="line"/>
      <point x="539" y="-97" type="line"/>
    </contour>
  </outline>
</glyph>
<glyph name="h" format="2">
  <advance width="619"/>
  <unicode hex="0068"/>
  <anchor x="491" y="0" name="bottomC"/>
  <anchor x="133" y="730" name="top"/>
  <anchor x="531" y="0" name="ogonek"/>
  <anchor x="342" y="0" name="bottom"/>
  <outline>
    <contour>
      <point x="93" y="730" type="line"/>
      <point x="93" y="0" type="line"/>
      <point x="173" y="0" type="line"/>
      <point x="173" y="730" type="line"/>
    </contour>
    <contour>
      <point x="142" y="288" type="curve"/>
      <point x="173" y="265" type="line"/>
      <point x="173" y="393"/>
      <point x="255" y="440"/>
      <point x="328" y="440" type="curve" smooth="yes"/>
      <point x="397" y="440"/>
      <point x="451" y="403"/>
      <point x="451" y="292" type="curve" smooth="yes"/>
      <point x="451" y="0" type="line"/>
      <point x="531" y="0" type="line"/>
      <point x="531" y="320" type="line" smooth="yes"/>
      <point x="531" y="449"/>
      <point x="443" y="510"/>
      <point x="336" y="510" type="curve" smooth="yes"/>
      <point x="230" y="510"/>
      <point x="142" y="449"/>
    </contour>
  </outline>
</glyph>
<glyph name="m" format="2">
  <advance width="953"/>
  <unicode hex="006D"/>
  <anchor x="825" y="0" name="bottomC"/>
  <anchor x="479" y="500" name="top"/>
  <anchor x="865" y="0" name="ogonek"/>
  <anchor x="479" y="0" name="bottom"/>
  <outline>
    <contour>
      <point x="486" y="346" type="curve"/>
      <point x="519" y="274" type="line"/>
      <point x="519" y="381"/>
      <point x="589" y="440"/>
      <point x="667" y="440" type="curve" smooth="yes"/>
      <point x="733" y="440"/>
      <point x="785" y="403"/>
      <point x="785" y="312" type="curve" smooth="yes"/>
      <point x="785" y="0" type="line"/>
      <point x="865" y="0" type="line"/>
      <point x="865" y="320" type="line" smooth="yes"/>
      <point x="865" y="452"/>
      <point x="770" y="510"/>
      <point x="674" y="510" type="curve" smooth="yes"/>
      <point x="594" y="510"/>
      <point x="486" y="461"/>
    </contour>
    <contour>
      <point x="93" y="500" type="line"/>
      <point x="93" y="383" type="line"/>
      <point x="93" y="0" type="line"/>
      <point x="173" y="0" type="line"/>
      <point x="173" y="379" type="line"/>
      <point x="170" y="383" type="line"/>
      <point x="163" y="500" type="line"/>
    </contour>
    <contour>
      <point x="136" y="293" type="curve"/>
      <point x="173" y="267" type="line"/>
      <point x="173" y="391"/>
      <point x="255" y="440"/>
      <point x="321" y="440" type="curve" smooth="yes"/>
      <point x="387" y="440"/>
      <point x="439" y="403"/>
      <point x="439" y="312" type="curve" smooth="yes"/>
      <point x="439" y="0" type="line"/>
      <point x="519" y="0" type="line"/>
      <point x="519" y="320" type="line" smooth="yes"/>
      <point x="519" y="452"/>
      <point x="424" y="510"/>
      <point x="328" y="510" type="curve" smooth="yes"/>
      <point x="233" y="510"/>
      <point x="136" y="445"/>
    </contour>
  </outline>
</glyph>
<glyph name="n" format="2">
  <advance width="619"/>
  <unicode hex="006E"/>
  <anchor x="491" y="0" name="bottomC"/>
  <anchor x="318" y="500" name="top"/>
  <anchor x="531" y="0" name="ogonek"/>
  <anchor x="342" y="0" name="bottom"/>
  <outline>
    <contour>
      <point x="138" y="291" type="curve"/>
      <point x="173" y="266" type="line"/>
      <point x="173" y="394"/>
      <point x="255" y="440"/>
      <point x="328" y="440" type="curve" smooth="yes"/>
      <point x="397" y="440"/>
      <point x="451" y="403"/>
      <point x="451" y="292" type="curve" smooth="yes"/>
      <point x="451" y="0" type="line"/>
      <point x="531" y="0" type="line"/>
      <point x="531" y="320" type="line" smooth="yes"/>
      <point x="531" y="449"/>
      <point x="443" y="510"/>
      <point x="336" y="510" type="curve" smooth="yes"/>
      <point x="231" y="510"/>
      <point x="138" y="451"/>
    </contour>
    <contour>
      <point x="93" y="500" type="line"/>
      <point x="93" y="383" type="line"/>
      <point x="93" y="0" type="line"/>
      <point x="173" y="0" type="line"/>
      <point x="173" y="377" type="line"/>
      <point x="170" y="383" type="line"/>
      <point x="163" y="500" type="line"/>
    </contour>
  </outline>
</glyph>
<glyph name="q" format="2">
  <advance width="631"/>
  <unicode hex="0071"/>
  <anchor x="283" y="0" name="bottomC"/>
  <anchor x="308" y="500" name="top"/>
  <anchor x="393" y="17" name="ogonek"/>
  <anchor x="498" y="-210" name="bottom"/>
  <outline>
    <contour>
      <point x="468" y="500" type="line"/>
      <point x="461" y="383" type="line"/>
      <point x="458" y="377" type="line"/>
      <point x="458" y="-210" type="line"/>
      <point x="538" y="-210" type="line"/>
      <point x="538" y="383" type="line"/>
      <point x="538" y="500" type="line"/>
    </contour>
    <component base="bowl" yScale="-1" xOffset="-16" yOffset="500"/>
  </outline>
</glyph>
<glyph name="s" format="2">
  <advance width="527"/>
  <unicode hex="0073"/>
  <anchor x="271" y="0" name="bottomC"/>
  <anchor x="264" y="500" name="top"/>
  <anchor x="390" y="17" name="ogonek"/>
  <anchor x="279" y="0" name="bottom"/>
  <outline>
    <contour>
      <point x="472" y="138" type="curve" smooth="yes"/>
      <point x="472" y="220"/>
      <point x="422" y="262"/>
      <point x="282" y="285" type="curve" smooth="yes"/>
      <point x="180" y="302"/>
      <point x="147" y="324"/>
      <point x="147" y="367" type="curve" smooth="yes"/>
      <point x="147" y="404"/>
      <point x="197" y="440"/>
      <point x="264" y="440" type="curve" smooth="yes"/>
      <point x="327" y="440"/>
      <point x="372" y="416"/>
      <point x="394" y="350" type="curve"/>
      <point x="462" y="390" type="line"/>
      <point x="434" y="472"/>
      <point x="371" y="510"/>
      <point x="264" y="510" type="curve" smooth="yes"/>
      <point x="142" y="510"/>
      <point x="67" y="441"/>
      <point x="67" y="360" type="curve" smooth="yes"/>
      <point x="67" y="276"/>
      <point x="119" y="237"/>
      <point x="261" y="211" type="curve" smooth="yes"/>
      <point x="361" y="193"/>
      <point x="392" y="171"/>
      <point x="392" y="134" type="curve" smooth="yes"/>
      <point x="392" y="93"/>
      <point x="353" y="60"/>
      <point x="271" y="60" type="curve" smooth="yes"/>
      <point x="199" y="60"/>
      <point x="137" y="87"/>
      <point x="113" y="148" type="curve"/>
      <point x="48" y="103" type="line"/>
      <point x="86" y="26"/>
      <point x="171" y="-10"/>
      <point x="263" y="-10" type="curve" smooth="yes"/>
      <point x="391" y="-10"/>
      <point x="472" y="51"/>
    </contour>
  </outline>
</glyph>
<glyph name="x" format="2">
  <advance width="533"/>
  <unicode hex="0078"/>
  <anchor x="478" y="0" name="bottomC"/>
  <anchor x="266" y="500" name="top"/>
  <anchor x="500" y="0" name="ogonek"/>
  <anchor x="266" y="0" name="bottom"/>
  <outline>
    <contour>
      <point x="41" y="500" type="line"/>
      <point x="238" y="228" type="line"/>
      <point x="247" y="217" type="line"/>
      <point x="402" y="0" type="line"/>
      <point x="500" y="0" type="line"/>
      <point x="295" y="284" type="line"/>
      <point x="290" y="291" type="line"/>
      <point x="141" y="500" type="line"/>
    </contour>
    <contour>
      <point x="403" y="500" type="line"/>
      <point x="253" y="287" type="line"/>
      <point x="247" y="287" type="line"/>
      <point x="29" y="0" type="line"/>
      <point x="122" y="0" type="line"/>
      <point x="294" y="233" type="line"/>
      <point x="299" y="233" type="line"/>
      <point x="497" y="500" type="line"/>
    </contour>
  </outline>
</glyph>
<glyph name="braceleft" format="2">
  <advance width="351"/>
  <unicode hex="007B"/>
  <outline>
    <contour>
      <point x="140" y="627" type="curve" smooth="yes"/>
      <point x="140" y="420" type="line" smooth="yes"/>
      <point x="140" y="345"/>
      <point x="109" y="316"/>
      <point x="28" y="316" type="curve"/>
      <point x="28" y="274" type="line"/>
      <point x="148" y="274"/>
      <point x="215" y="320"/>
      <point x="215" y="413" type="curve" smooth="yes"/>
      <point x="215" y="633" type="line" smooth="yes"/>
      <point x="215" y="669"/>
      <point x="242" y="686"/>
      <point x="310" y="686" type="curve"/>
      <point x="297" y="751" type="line"/>
      <point x="182" y="751"/>
      <point x="140" y="706"/>
    </contour>
    <contour>
      <point x="28" y="246" type="line"/>
      <point x="109" y="246"/>
      <point x="140" y="217"/>
      <point x="140" y="142" type="curve" smooth="yes"/>
      <point x="140" y="-65" type="line" smooth="yes"/>
      <point x="140" y="-144"/>
      <point x="182" y="-189"/>
      <point x="297" y="-189" type="curve"/>
      <point x="310" y="-124" type="line"/>
      <point x="242" y="-124"/>
      <point x="215" y="-107"/>
      <point x="215" y="-71" type="curve" smooth="yes"/>
      <point x="215" y="149" type="line" smooth="yes"/>
      <point x="215" y="242"/>
      <point x="148" y="288"/>
      <point x="28" y="288" type="curve"/>
    </contour>
  </outline>
</glyph>
<glyph name="bar" format="2">
  <advance width="243"/>
  <unicode hex="007C"/>
  <outline>
    <contour>
      <point x="87" y="730" type="line"/>
      <point x="87" y="-168" type="line"/>
      <point x="156" y="-168" type="line"/>
      <point x="156" y="730" type="line"/>
    </contour>
  </outline>
</glyph>
<glyph name="sterling" format="2">
  <advance width="626"/>
  <unicode hex="00A3"/>
  <outline>
    <contour>
      <point x="86" y="343" type="line"/>
      <point x="86" y="278" type="line"/>
      <point x="473" y="278" type="line"/>
      <point x="473" y="343" type="line"/>
    </contour>
    <component base="sterling.part" xOffset="15"/>
  </outline>
</glyph>
<glyph name="dieresis" format="2">
  <advance width="500"/>
  <unicode hex="00A8"/>
  <anchor x="253" y="500" name="_top"/>
  <outline>
    <contour>
      <point x="99" y="639" type="curve" smooth="yes"/>
      <point x="99" y="605"/>
      <point x="122" y="582"/>
      <point x="156" y="582" type="curve" smooth="yes"/>
      <point x="190" y="582"/>
      <point x="213" y="605"/>
      <point x="213" y="639" type="curve" smooth="yes"/>
      <point x="213" y="673"/>
      <point x="190" y="696"/>
      <point x="156" y="696" type="curve" smooth="yes"/>
      <point x="122" y="696"/>
      <point x="99" y="673"/>
    </contour>
    <contour>
      <point x="293" y="639" type="curve" smooth="yes"/>
      <point x="293" y="605"/>
      <point x="316" y="582"/>
      <point x="350" y="582" type="curve" smooth="yes"/>
      <point x="384" y="582"/>
      <point x="407" y="605"/>
      <point x="407" y="639" type="curve" smooth="yes"/>
      <point x="407" y="673"/>
      <point x="384" y="696"/>
      <point x="350" y="696" type="curve" smooth="yes"/>
      <point x="316" y="696"/>
      <point x="293" y="673"/>
    </contour>
  </outline>
</glyph>
<glyph name="ordfeminine" format="2">
  <advance width="382"/>
  <unicode hex="00AA"/>
  <outline>
    <contour>
      <point x="74" y="550" type="line"/>
      <point x="92" y="597"/>
      <point x="126" y="611"/>
      <point x="168" y="611" type="curve" smooth="yes"/>
      <point x="215" y="611"/>
      <point x="242" y="586"/>
      <point x="242" y="545" type="curve" smooth="yes"/>
      <point x="242" y="420" type="line"/>
      <point x="252" y="400" type="line"/>
      <point x="252" y="352"/>
      <point x="278" y="327"/>
      <point x="321" y="327" type="curve" smooth="yes"/>
      <point x="336" y="327"/>
      <point x="349" y="331"/>
      <point x="360" y="336" type="curve"/>
      <point x="365" y="380" type="line"/>
      <point x="359" y="377"/>
      <point x="352" y="376"/>
      <point x="341" y="376" type="curve" smooth="yes"/>
      <point x="324" y="376"/>
      <point x="310" y="383"/>
      <point x="310" y="407" type="curve" smooth="yes"/>
      <point x="310" y="547" type="line" smooth="yes"/>
      <point x="310" y="625"/>
      <point x="261" y="665"/>
      <point x="171" y="665" type="curve" smooth="yes"/>
      <point x="91" y="665"/>
      <point x="40" y="630"/>
      <point x="25" y="579" type="curve"/>
    </contour>
    <contour>
      <point x="346" y="201" type="line"/>
      <point x="346" y="254" type="line"/>
      <point x="26" y="254" type="line"/>
      <point x="26" y="201" type="line"/>
    </contour>
    <contour>
      <point x="271" y="427" type="curve"/>
      <point x="242" y="448" type="line"/>
      <point x="242" y="405"/>
      <point x="190" y="381"/>
      <point x="147" y="381" type="curve" smooth="yes"/>
      <point x="109" y="381"/>
      <point x="89" y="390"/>
      <point x="89" y="418" type="curve" smooth="yes"/>
      <point x="89" y="449"/>
      <point x="115" y="461"/>
      <point x="171" y="472" type="curve" smooth="yes"/>
      <point x="266" y="491" type="line"/>
      <point x="259" y="534" type="line"/>
      <point x="149" y="515" type="line" smooth="yes"/>
      <point x="59" y="499"/>
      <point x="19" y="465"/>
      <point x="19" y="410" type="curve" smooth="yes"/>
      <point x="19" y="356"/>
      <point x="62" y="327"/>
      <point x="129" y="327" type="curve" smooth="yes"/>
      <point x="211" y="327"/>
      <point x="271" y="367"/>
    </contour>
  </outline>
</glyph>
<glyph name="registered" format="2">
  <advance width="820"/>
  <unicode hex="00AE"/>
  <outline>
    <contour>
      <point x="68" y="330" type="curve" smooth="yes"/>
      <point x="68" y="124"/>
      <point x="202" y="-10"/>
      <point x="410" y="-10" type="curve" smooth="yes"/>
      <point x="618" y="-10"/>
      <point x="752" y="124"/>
      <point x="752" y="330" type="curve" smooth="yes"/>
      <point x="752" y="536"/>
      <point x="618" y="670"/>
      <point x="410" y="670" type="curve" smooth="yes"/>
      <point x="202" y="670"/>
      <point x="68" y="536"/>
    </contour>
    <contour>
      <point x="281" y="513" type="line"/>
      <point x="281" y="143" type="line"/>
      <point x="348" y="143" type="line"/>
      <point x="348" y="513" type="line"/>
    </contour>
    <contour>
      <point x="405" y="293" type="line"/>
      <point x="505" y="143" type="line"/>
      <point x="581" y="143" type="line"/>
      <point x="460" y="316" type="line"/>
    </contour>
    <contour>
      <point x="681" y="330" type="curve" smooth="yes"/>
      <point x="681" y="163"/>
      <point x="575" y="55"/>
      <point x="410" y="55" type="curve" smooth="yes"/>
      <point x="245" y="55"/>
      <point x="139" y="163"/>
      <point x="139" y="330" type="curve" smooth="yes"/>
      <point x="139" y="497"/>
      <point x="245" y="605"/>
      <point x="410" y="605" type="curve" smooth="yes"/>
      <point x="575" y="605"/>
      <point x="681" y="497"/>
    </contour>
    <contour>
      <point x="322" y="513" type="line"/>
      <point x="322" y="462" type="line"/>
      <point x="432" y="462" type="line" smooth="yes"/>
      <point x="480" y="462"/>
      <point x="506" y="440"/>
      <point x="506" y="395" type="curve" smooth="yes"/>
      <point x="506" y="350"/>
      <point x="480" y="328"/>
      <point x="432" y="328" type="curve" smooth="yes"/>
      <point x="322" y="328" type="line"/>
      <point x="322" y="277" type="line"/>
      <point x="433" y="277" type="line" smooth="yes"/>
      <point x="516" y="277"/>
      <point x="573" y="322"/>
      <point x="573" y="395" type="curve" smooth="yes"/>
      <point x="573" y="468"/>
      <point x="516" y="513"/>
      <point x="433" y="513" type="curve" smooth="yes"/>
    </contour>
  </outline>
</glyph>
<glyph name="macron" format="2">
  <advance width="500"/>
  <unicode hex="00AF"/>
  <anchor x="250" y="500" name="_top"/>
  <outline>
    <contour>
      <point x="76" y="663" type="line"/>
      <point x="76" y="596" type="line"/>
      <point x="424" y="596" type="line"/>
      <point x="424" y="663" type="line"/>
    </contour>
  </outline>
</glyph>
<glyph name="uni00B5" format="2">
  <advance width="624"/>
  <unicode hex="00B5"/>
  <anchor x="519" y="0" name="bottomC"/>
  <anchor x="313" y="500" name="top"/>
  <anchor x="531" y="0" name="ogonek"/>
  <anchor x="313" y="-210" name="bottom"/>
  <outline>
    <contour>
      <point x="173" y="194" type="curve"/>
      <point x="133" y="173" type="line"/>
      <point x="133" y="41"/>
      <point x="198" y="-10"/>
      <point x="277" y="-10" type="curve" smooth="yes"/>
      <point x="401" y="-10"/>
      <point x="473" y="53"/>
      <point x="487" y="173" type="curve"/>
      <point x="451" y="184" type="line"/>
      <point x="438" y="106"/>
      <point x="378" y="60"/>
      <point x="291" y="60" type="curve" smooth="yes"/>
      <point x="219" y="60"/>
      <point x="173" y="91"/>
    </contour>
    <contour>
      <point x="93" y="500" type="line"/>
      <point x="93" y="-210" type="line"/>
      <point x="173" y="-210" type="line"/>
      <point x="173" y="500" type="line"/>
    </contour>
    <contour>
      <point x="451" y="500" type="line"/>
      <point x="451" y="139" type="line"/>
      <point x="456" y="117" type="line"/>
      <point x="466" y="0" type="line"/>
      <point x="531" y="0" type="line"/>
      <point x="531" y="117" type="line"/>
      <point x="531" y="500" type="line"/>
    </contour>
  </outline>
</glyph>
<glyph name="cedilla" format="2">
  <advance width="500"/>
  <unicode hex="00B8"/>
  <anchor x="260" y="0" name="_bottomC"/>
  <outline>
    <contour>
      <point x="302" y="-97" type="curve" smooth="yes"/>
      <point x="302" y="-132"/>
      <point x="277" y="-155"/>
      <point x="245" y="-155" type="curve" smooth="yes"/>
      <point x="217" y="-155"/>
      <point x="192" y="-142"/>
      <point x="176" y="-125" type="curve"/>
      <point x="146" y="-180" type="line"/>
      <point x="174" y="-205"/>
      <point x="209" y="-215"/>
      <point x="256" y="-215" type="curve" smooth="yes"/>
      <point x="330" y="-215"/>
      <point x="372" y="-164"/>
      <point x="372" y="-108" type="curve" smooth="yes"/>
      <point x="372" y="-54"/>
      <point x="330" y="4"/>
      <point x="247" y="29" type="curve"/>
      <point x="203" y="3" type="line"/>
      <point x="281" y="-32"/>
      <point x="302" y="-55"/>
    </contour>
  </outline>
</glyph>
<glyph name="Idieresis" format="2">
  <advance width="296"/>
  <unicode hex="00CF"/>
  <anchor x="148" y="660" name="top"/>
  <anchor x="188" y="0" name="ogonek"/>
  <anchor x="148" y="0" name="bottom"/>
  <anchor x="148" y="0" name="bottomC"/>
  <outline>
    <contour>
      <point x="5" y="799" type="curve" smooth="yes"/>
      <point x="5" y="765"/>
      <point x="28" y="742"/>
      <point x="62" y="742" type="curve" smooth="yes"/>
      <point x="96" y="742"/>
      <point x="119" y="765"/>
      <point x="119" y="799" type="curve" smooth="yes"/>
      <point x="119" y="833"/>
      <point x="96" y="856"/>
      <point x="62" y="856" type="curve" smooth="yes"/>
      <point x="28" y="856"/>
      <point x="5" y="833"/>
    </contour>
    <contour>
      <point x="177" y="799" type="curve" smooth="yes"/>
      <point x="177" y="765"/>
      <point x="200" y="742"/>
      <point x="234" y="742" type="curve" smooth="yes"/>
      <point x="268" y="742"/>
      <point x="291" y="765"/>
      <point x="291" y="799" type="curve" smooth="yes"/>
      <point x="291" y="833"/>
      <point x="268" y="856"/>
      <point x="234" y="856" type="curve" smooth="yes"/>
      <point x="200" y="856"/>
      <point x="177" y="833"/>
    </contour>
    <component base="I"/>
  </outline>
</glyph>
<glyph name="Dcroat" format="2">
  <advance width="737"/>
  <unicode hex="0110"/>
  <anchor x="326" y="0" name="bottomC"/>
  <anchor x="341" y="660" name="top"/>
  <anchor x="337" y="0" name="ogonek"/>
  <anchor x="382" y="330" name="center"/>
  <anchor x="341" y="0" name="bottom"/>
  <outline>
    <contour>
      <point x="26" y="363" type="line"/>
      <point x="26" y="303" type="line"/>
      <point x="401" y="303" type="line"/>
      <point x="401" y="363" type="line"/>
    </contour>
    <component base="D" xOffset="16"/>
  </outline>
</glyph>
<glyph name="gbreve" format="2">
  <advance width="532"/>
  <unicode hex="011F"/>
  <outline>
    <contour>
      <point x="374" y="460" type="curve"/>
      <point x="424" y="439" type="line"/>
      <point x="422" y="497"/>
      <point x="462" y="522"/>
      <point x="532" y="522" type="curve"/>
      <point x="514" y="592" type="line"/>
      <point x="435" y="592"/>
      <point x="372" y="542"/>
    </contour>
    <component base="gbase" xOffset="-10"/>
    <component base="breve" xOffset="27"/>
  </outline>
</glyph>
<glyph name="OE" format="2">
  <advance width="1080"/>
  <unicode hex="0152"/>
  <anchor x="646" y="0" name="bottomC"/>
  <anchor x="595" y="660" name="top"/>
  <anchor x="1028" y="0" name="ogonek"/>
  <anchor x="595" y="0" name="bottom"/>
  <outline>
    <contour>
      <point x="68" y="330" type="curve" smooth="yes"/>
      <point x="68" y="121"/>
      <point x="184" y="-10"/>
      <point x="372" y="-10" type="curve" smooth="yes"/>
      <point x="536" y="-10"/>
      <point x="650" y="121"/>
      <point x="650" y="330" type="curve" smooth="yes"/>
      <point x="650" y="539"/>
      <point x="540" y="670"/>
      <point x="376" y="670" type="curve" smooth="yes"/>
      <point x="182" y="670"/>
      <point x="68" y="539"/>
    </contour>
    <contour>
      <point x="586" y="330" type="curve" smooth="yes"/>
      <point x="586" y="164"/>
      <point x="501" y="65"/>
      <point x="376" y="65" type="curve" smooth="yes"/>
      <point x="233" y="65"/>
      <point x="152" y="164"/>
      <point x="152" y="330" type="curve" smooth="yes"/>
      <point x="152" y="496"/>
      <point x="233" y="595"/>
      <point x="376" y="595" type="curve" smooth="yes"/>
      <point x="501" y="595"/>
      <point x="586" y="496"/>
    </contour>
    <contour>
      <point x="628" y="75" type="line"/>
      <point x="628" y="0" type="line"/>
      <point x="1028" y="0" type="line"/>
      <point x="1028" y="75" type="line"/>
    </contour>
    <contour>
      <point x="586" y="660" type="line"/>
      <point x="586" y="0" type="line"/>
      <point x="659" y="0" type="line"/>
      <point x="659" y="660" type="line"/>
    </contour>
    <contour>
      <point x="628" y="372" type="line"/>
      <point x="628" y="297" type="line"/>
      <point x="928" y="297" type="line"/>
      <point x="928" y="372" type="line"/>
    </contour>
    <contour>
      <point x="628" y="660" type="line"/>
      <point x="628" y="585" type="line"/>
      <point x="1013" y="585" type="line"/>
      <point x="1013" y="660" type="line"/>
    </contour>
  </outline>
</glyph>
<glyph name="caron" format="2">
  <advance width="500"/>
  <unicode hex="02C7"/>
  <anchor x="250" y="500" name="_top"/>
  <outline>
    <contour>
      <point x="336" y="750" type="line"/>
      <point x="250" y="635" type="line"/>
      <point x="164" y="750" type="line"/>
      <point x="91" y="750" type="line"/>
      <point x="205" y="583" type="line"/>
      <point x="295" y="583" type="line"/>
      <point x="409" y="750" type="line"/>
    </contour>
  </outline>
</glyph>
<glyph name="breve" format="2">
  <advance width="500"/>
  <unicode hex="02D8"/>
  <anchor x="250" y="500" name="_top"/>
  <outline>
    <contour>
      <point x="332" y="725" type="line"/>
      <point x="332" y="678"/>
      <point x="297" y="637"/>
      <point x="250" y="637" type="curve" smooth="yes"/>
      <point x="203" y="637"/>
      <point x="168" y="678"/>
      <point x="168" y="725" type="curve"/>
      <point x="102" y="725" type="line"/>
      <point x="102" y="637"/>
      <point x="162" y="577"/>
      <point x="250" y="577" type="curve" smooth="yes"/>
      <point x="338" y="577"/>
      <point x="398" y="637"/>
      <point x="398" y="725" type="curve"/>
    </contour>
  </outline>
</glyph>
<glyph name="dotaccent" format="2">
  <advance width="500"/>
  <unicode hex="02D9"/>
  <anchor x="250" y="500" name="_top"/>
  <outline>
    <contour>
      <point x="190" y="656" type="curve" smooth="yes"/>
      <point x="190" y="620"/>
      <point x="214" y="596"/>
      <point x="250" y="596" type="curve" smooth="yes"/>
      <point x="286" y="596"/>
      <point x="310" y="620"/>
      <point x="310" y="656" type="curve" smooth="yes"/>
      <point x="310" y="692"/>
      <point x="286" y="716"/>
      <point x="250" y="716" type="curve" smooth="yes"/>
      <point x="214" y="716"/>
      <point x="190" y="692"/>
    </contour>
  </outline>
</glyph>
<glyph name="pi" format="2">
  <advance width="736"/>
  <unicode hex="03C0"/>
  <outline>
    <contour>
      <point x="695" y="500" type="line"/>
      <point x="31" y="500" type="line"/>
      <point x="31" y="433" type="line"/>
      <point x="695" y="433" type="line"/>
    </contour>
    <contour>
      <point x="167" y="500" type="line"/>
      <point x="167" y="0" type="line"/>
      <point x="247" y="0" type="line"/>
      <point x="247" y="500" type="line"/>
    </contour>
    <contour>
      <point x="463" y="500" type="line"/>
      <point x="463" y="125" type="line" smooth="yes"/>
      <point x="463" y="30"/>
      <point x="510" y="0"/>
      <point x="636" y="0" type="curve"/>
      <point x="652" y="67" type="line"/>
      <point x="576" y="67"/>
      <point x="543" y="83"/>
      <point x="543" y="136" type="curve" smooth="yes"/>
      <point x="543" y="500" type="line"/>
    </contour>
  </outline>
</glyph>
<glyph name="Germandbls" format="2">
  <advance width="691"/>
  <unicode hex="1E9E"/>
  <anchor x="448" y="0" name="bottomC"/>
  <anchor x="380" y="660" name="top"/>
  <anchor x="488" y="0" name="ogonek"/>
  <anchor x="380" y="0" name="bottom"/>
  <outline>
    <contour>
      <point x="188" y="0" type="line"/>
      <point x="188" y="442" type="line" smooth="yes"/>
      <point x="188" y="525"/>
      <point x="253" y="585"/>
      <point x="330" y="585" type="curve" smooth="yes"/>
      <point x="513" y="585" type="line"/>
      <point x="339" y="370" type="line"/>
      <point x="390" y="329" type="line"/>
      <point x="608" y="584" type="line"/>
      <point x="608" y="660" type="line"/>
      <point x="330" y="660" type="line" smooth="yes"/>
      <point x="203" y="660"/>
      <point x="108" y="573"/>
      <point x="108" y="443" type="curve" smooth="yes"/>
      <point x="108" y="0" type="line"/>
    </contour>
    <contour>
      <point x="651" y="185" type="curve" smooth="yes"/>
      <point x="651" y="303"/>
      <point x="569" y="370"/>
      <point x="448" y="370" type="curve" smooth="yes"/>
      <point x="339" y="370" type="line"/>
      <point x="339" y="302" type="line"/>
      <point x="416" y="302" type="line" smooth="yes"/>
      <point x="512" y="302"/>
      <point x="567" y="257"/>
      <point x="567" y="185" type="curve" smooth="yes"/>
      <point x="567" y="116"/>
      <point x="516" y="68"/>
      <point x="438" y="68" type="curve" smooth="yes"/>
      <point x="385" y="68"/>
      <point x="334" y="88"/>
      <point x="309" y="118" type="curve"/>
      <point x="275" y="59" type="line"/>
      <point x="299" y="24"/>
      <point x="363" y="-5"/>
      <point x="446" y="-5" type="curve" smooth="yes"/>
      <point x="565" y="-5"/>
      <point x="651" y="70"/>
    </contour>
  </outline>
</glyph>
<glyph name="dagger" format="2">
  <advance width="513"/>
  <unicode hex="2020"/>
  <outline>
    <contour>
      <point x="217" y="660" type="line"/>
      <point x="217" y="-100" type="line"/>
      <point x="297" y="-100" type="line"/>
      <point x="297" y="660" type="line"/>
    </contour>
    <contour>
      <point x="39" y="450" type="line"/>
      <point x="39" y="381" type="line"/>
      <point x="474" y="381" type="line"/>
      <point x="474" y="450" type="line"/>
    </contour>
  </outline>
</glyph>
<glyph name="perthousand" format="2">
  <advance width="1244"/>
  <unicode hex="2030"/>
  <outline>
    <contour>
      <point x="886" y="172" type="curve" smooth="yes"/>
      <point x="886" y="62"/>
      <point x="948" y="-10"/>
      <point x="1045" y="-10" type="curve" smooth="yes"/>
      <point x="1142" y="-10"/>
      <point x="1204" y="62"/>
      <point x="1204" y="172" type="curve" smooth="yes"/>
      <point x="1204" y="282"/>
      <point x="1142" y="354"/>
      <point x="1045" y="354" type="curve" smooth="yes"/>
      <point x="948" y="354"/>
      <point x="886" y="282"/>
    </contour>
    <contour>
      <point x="1133" y="172" type="curve" smooth="yes"/>
      <point x="1133" y="97"/>
      <point x="1102" y="53"/>
      <point x="1045" y="53" type="curve" smooth="yes"/>
      <point x="988" y="53"/>
      <point x="957" y="97"/>
      <point x="957" y="172" type="curve" smooth="yes"/>
      <point x="957" y="247"/>
      <point x="988" y="291"/>
      <point x="1045" y="291" type="curve" smooth="yes"/>
      <point x="1102" y="291"/>
      <point x="1133" y="247"/>
    </contour>
    <component base="percent"/>
  </outline>
</glyph>
<glyph name="sixsuperior" format="2">
  <advance width="376"/>
  <unicode hex="2076"/>
  <anchor x="200" y="530" name="_indexring"/>
  <outline>
    <contour>
      <point x="345" y="454" type="curve" smooth="yes"/>
      <point x="345" y="530"/>
      <point x="291" y="580"/>
      <point x="207" y="580" type="curve" smooth="yes"/>
      <point x="159" y="580"/>
      <point x="128" y="564"/>
      <point x="101" y="524" type="curve"/>
      <point x="100" y="524" type="line"/>
      <point x="100" y="528"/>
      <point x="100" y="532"/>
      <point x="100" y="537" type="curve" smooth="yes"/>
      <point x="100" y="610"/>
      <point x="134" y="678"/>
      <point x="204" y="678" type="curve" smooth="yes"/>
      <point x="247" y="678"/>
      <point x="270" y="655"/>
      <point x="280" y="623" type="curve"/>
      <point x="338" y="653" type="line"/>
      <point x="315" y="710"/>
      <point x="272" y="735"/>
      <point x="205" y="735" type="curve" smooth="yes"/>
      <point x="108" y="735"/>
      <point x="34" y="667"/>
      <point x="34" y="531" type="curve" smooth="yes"/>
      <point x="34" y="398"/>
      <point x="93" y="327"/>
      <point x="197" y="327" type="curve" smooth="yes"/>
      <point x="288" y="327"/>
      <point x="345" y="375"/>
    </contour>
    <contour>
      <point x="117" y="454" type="curve" smooth="yes"/>
      <point x="117" y="490"/>
      <point x="149" y="525"/>
      <point x="198" y="525" type="curve" smooth="yes"/>
      <point x="248" y="525"/>
      <point x="279" y="497"/>
      <point x="279" y="454" type="curve" smooth="yes"/>
      <point x="279" y="409"/>
      <point x="248" y="383"/>
      <point x="198" y="383" type="curve" smooth="yes"/>
      <point x="149" y="383"/>
      <point x="117" y="411"/>
    </contour>
  </outline>
</glyph>
<glyph name="plussuperior" format="2">
  <advance width="342"/>
  <unicode hex="207A"/>
  <outline>
    <contour>
      <point x="315" y="505" type="line"/>
      <point x="315" y="554" type="line"/>
      <point x="27" y="554" type="line"/>
      <point x="27" y="505" type="line"/>
    </contour>
    <contour>
      <point x="200" y="385" type="line"/>
      <point x="200" y="674" type="line"/>
      <point x="143" y="674" type="line"/>
      <point x="143" y="385" type="line"/>
    </contour>
  </outline>
</glyph>
<glyph name="minussuperior" format="2">
  <advance width="342"/>
  <unicode hex="207B"/>
  <outline>
    <contour>
      <point x="315" y="505" type="line"/>
      <point x="315" y="554" type="line"/>
      <point x="27" y="554" type="line"/>
      <point x="27" y="505" type="line"/>
    </contour>
  </outline>
</glyph>
<glyph name="trademark" format="2">
  <advance width="838"/>
  <unicode hex="2122"/>
  <outline>
    <contour>
      <point x="155" y="660" type="line"/>
      <point x="155" y="330" type="line"/>
      <point x="225" y="330" type="line"/>
      <point x="225" y="660" type="line"/>
    </contour>
    <contour>
      <point x="54" y="660" type="line"/>
      <point x="54" y="606" type="line"/>
      <point x="325" y="606" type="line"/>
      <point x="325" y="660" type="line"/>
    </contour>
    <contour>
      <point x="660" y="660" type="line"/>
      <point x="591" y="480" type="line"/>
      <point x="569" y="416" type="line"/>
      <point x="567" y="416" type="line"/>
      <point x="544" y="480" type="line"/>
      <point x="476" y="660" type="line"/>
      <point x="388" y="660" type="line"/>
      <point x="388" y="330" type="line"/>
      <point x="457" y="330" type="line"/>
      <point x="457" y="488" type="line"/>
      <point x="450" y="575" type="line"/>
      <point x="451" y="575" type="line"/>
      <point x="460" y="548" type="line"/>
      <point x="543" y="330" type="line"/>
      <point x="593" y="330" type="line"/>
      <point x="675" y="548" type="line"/>
      <point x="684" y="575" type="line"/>
      <point x="685" y="575" type="line"/>
      <point x="678" y="488" type="line"/>
      <point x="678" y="330" type="line"/>
      <point x="747" y="330" type="line"/>
      <point x="747" y="660" type="line"/>
    </contour>
  </outline>
</glyph>
<glyph name="uni2126" format="2">
  <advance width="774"/>
  <unicode hex="2126"/>
  <outline>
    <contour>
      <point x="81" y="330" type="curve" smooth="yes"/>
      <point x="81" y="178"/>
      <point x="165" y="69"/>
      <point x="306" y="29" type="curve"/>
      <point x="330" y="68" type="line"/>
      <point x="227" y="95"/>
      <point x="161" y="187"/>
      <point x="161" y="330" type="curve" smooth="yes"/>
      <point x="161" y="496"/>
      <point x="250" y="595"/>
      <point x="387" y="595" type="curve" smooth="yes"/>
      <point x="524" y="595"/>
      <point x="613" y="496"/>
      <point x="613" y="330" type="curve" smooth="yes"/>
      <point x="613" y="187"/>
      <point x="547" y="95"/>
      <point x="444" y="68" type="curve"/>
      <point x="468" y="29" type="line"/>
      <point x="609" y="69"/>
      <point x="693" y="178"/>
      <point x="693" y="330" type="curve" smooth="yes"/>
      <point x="693" y="539"/>
      <point x="575" y="670"/>
      <point x="387" y="670" type="curve" smooth="yes"/>
      <point x="199" y="670"/>
      <point x="81" y="539"/>
    </contour>
    <contour>
      <point x="71" y="0" type="line"/>
      <point x="330" y="0" type="line"/>
      <point x="330" y="68" type="line"/>
      <point x="71" y="68" type="line"/>
    </contour>
    <contour>
      <point x="444" y="68" type="line"/>
      <point x="444" y="0" type="line"/>
      <point x="703" y="0" type="line"/>
      <point x="703" y="68" type="line"/>
    </contour>
  </outline>
</glyph>
<glyph name="estimated" format="2">
  <advance width="805"/>
  <unicode hex="212E"/>
  <outline>
    <contour>
      <point x="68" y="330" type="curve" smooth="yes"/>
      <point x="68" y="124"/>
      <point x="202" y="-10"/>
      <point x="428" y="-10" type="curve" smooth="yes"/>
      <point x="554" y="-10"/>
      <point x="655" y="35"/>
      <point x="715" y="131" type="curve"/>
      <point x="715" y="208" type="line"/>
      <point x="642" y="94"/>
      <point x="546" y="45"/>
      <point x="428" y="45" type="curve" smooth="yes"/>
      <point x="331" y="45"/>
      <point x="253" y="77"/>
      <point x="201" y="132" type="curve"/>
      <point x="201" y="301" type="line"/>
      <point x="747" y="301" type="line"/>
      <point x="747" y="542"/>
      <point x="620" y="670"/>
      <point x="408" y="670" type="curve" smooth="yes"/>
      <point x="202" y="670"/>
      <point x="68" y="536"/>
    </contour>
    <contour>
      <point x="615" y="530" type="curve"/>
      <point x="615" y="359" type="line"/>
      <point x="201" y="359" type="line"/>
      <point x="201" y="530" type="line"/>
      <point x="251" y="584"/>
      <point x="323" y="615"/>
      <point x="408" y="615" type="curve" smooth="yes"/>
      <point x="493" y="615"/>
      <point x="565" y="584"/>
    </contour>
  </outline>
</glyph>
<glyph name="uparrow" format="2">
  <advance width="750"/>
  <unicode hex="2191"/>
  <outline>
    <contour>
      <point x="391" y="628" type="curve"/>
      <point x="357" y="628" type="line"/>
      <point x="381" y="531"/>
      <point x="487" y="418"/>
      <point x="654" y="308" type="curve"/>
      <point x="706" y="371" type="line"/>
      <point x="547" y="468"/>
      <point x="458" y="554"/>
      <point x="377" y="666" type="curve"/>
      <point x="371" y="666" type="line"/>
      <point x="290" y="554"/>
      <point x="201" y="468"/>
      <point x="42" y="371" type="curve"/>
      <point x="94" y="308" type="line"/>
      <point x="261" y="418"/>
      <point x="367" y="531"/>
    </contour>
    <contour>
      <point x="414" y="0" type="line"/>
      <point x="414" y="355" type="line" smooth="yes"/>
      <point x="414" y="439"/>
      <point x="409" y="500"/>
      <point x="404" y="550" type="curve"/>
      <point x="374" y="610" type="line"/>
      <point x="344" y="550" type="line"/>
      <point x="339" y="500"/>
      <point x="334" y="439"/>
      <point x="334" y="355" type="curve" smooth="yes"/>
      <point x="334" y="0" type="line"/>
    </contour>
  </outline>
</glyph>
<glyph name="nearrow" format="2">
  <advance width="750"/>
  <unicode hex="2197"/>
  <outline>
    <contour>
      <point x="431" y="340" type="line" smooth="yes"/>
      <point x="491" y="399"/>
      <point x="530" y="446"/>
      <point x="562" y="485" type="curve"/>
      <point x="583" y="548" type="line"/>
      <point x="520" y="527" type="line"/>
      <point x="481" y="495"/>
      <point x="434" y="456"/>
      <point x="375" y="396" type="curve" smooth="yes"/>
      <point x="124" y="145" type="line"/>
      <point x="180" y="89" type="line"/>
    </contour>
    <contour>
      <point x="619" y="115" type="line"/>
      <point x="592" y="276"/>
      <point x="600" y="428"/>
      <point x="625" y="585" type="curve"/>
      <point x="620" y="590" type="line"/>
      <point x="463" y="565"/>
      <point x="311" y="557"/>
      <point x="150" y="584" type="curve"/>
      <point x="142" y="506" type="line"/>
      <point x="297" y="481"/>
      <point x="506" y="497"/>
      <point x="600" y="541" type="curve"/>
      <point x="576" y="565" type="line"/>
      <point x="532" y="471"/>
      <point x="516" y="262"/>
      <point x="541" y="107" type="curve"/>
    </contour>
  </outline>
</glyph>
<glyph name="blackDiamond" format="2">
  <advance width="600"/>
  <unicode hex="25C6"/>
  <outline>
    <contour>
      <point x="565" y="259" type="line"/>
      <point x="300" y="524" type="line"/>
      <point x="35" y="259" type="line"/>
      <point x="300" y="-6" type="line"/>
    </contour>
  </outline>
</glyph>
<glyph name="lozenge" format="2">
  <advance width="587"/>
  <unicode hex="25CA"/>
  <outline>
    <contour>
      <point x="261" y="660" type="line"/>
      <point x="449" y="330" type="line"/>
      <point x="540" y="330" type="line"/>
      <point x="341" y="660" type="line"/>
    </contour>
    <contour>
      <point x="48" y="330" type="line"/>
      <point x="246" y="0" type="line"/>
      <point x="327" y="0" type="line"/>
      <point x="139" y="330" type="line"/>
    </contour>
    <contour>
      <point x="449" y="330" type="line"/>
      <point x="261" y="0" type="line"/>
      <point x="341" y="0" type="line"/>
      <point x="540" y="330" type="line"/>
    </contour>
    <contour>
      <point x="246" y="660" type="line"/>
      <point x="48" y="330" type="line"/>
      <point x="139" y="330" type="line"/>
      <point x="327" y="660" type="line"/>
    </contour>
  </outline>
</glyph>
<glyph name="Adieresis.titl.001" format="2">
  <advance width="660"/>
  <outline>
    <contour>
      <point x="110" y="0" type="line"/>
      <point x="299" y="495" type="line"/>
      <point x="328" y="584" type="line"/>
      <point x="330" y="584" type="line"/>
      <point x="361" y="492" type="line"/>
      <point x="549" y="0" type="line"/>
      <point x="634" y="0" type="line"/>
      <point x="378" y="660" type="line"/>
      <point x="283" y="660" type="line"/>
      <point x="26" y="0" type="line"/>
    </contour>
    <contour>
      <point x="505" y="183" type="line"/>
      <point x="505" y="258" type="line"/>
      <point x="152" y="258" type="line"/>
      <point x="152" y="183" type="line"/>
    </contour>
    <contour>
      <point x="213" y="556" type="curve"/>
      <point x="244" y="631" type="line"/>
      <point x="236" y="650"/>
      <point x="217" y="662"/>
      <point x="193" y="662" type="curve" smooth="yes"/>
      <point x="161" y="662"/>
      <point x="139" y="640"/>
      <point x="139" y="608" type="curve" smooth="yes"/>
      <point x="139" y="575"/>
      <point x="161" y="553"/>
      <point x="193" y="553" type="curve" smooth="yes"/>
      <point x="200" y="553"/>
      <point x="207" y="554"/>
    </contour>
    <contour>
      <point x="522" y="608" type="curve" smooth="yes"/>
      <point x="522" y="640"/>
      <point x="500" y="662"/>
      <point x="468" y="662" type="curve" smooth="yes"/>
      <point x="444" y="662"/>
      <point x="425" y="650"/>
      <point x="417" y="631" type="curve"/>
      <point x="448" y="556" type="line"/>
      <point x="454" y="554"/>
      <point x="461" y="553"/>
      <point x="468" y="553" type="curve" smooth="yes"/>
      <point x="500" y="553"/>
      <point x="522" y="575"/>
    </contour>
  </outline>
</glyph>
<glyph name="Euro.tf" format="2">
  <advance width="604"/>
  <outline>
    <contour>
      <point x="19" y="279" type="line"/>
      <point x="19" y="214" type="line"/>
      <point x="354" y="214" type="line"/>
      <point x="374" y="279" type="line"/>
    </contour>
    <contour>
      <point x="19" y="430" type="line"/>
      <point x="19" y="365" type="line"/>
      <point x="394" y="365" type="line"/>
      <point x="414" y="430" type="line"/>
    </contour>
    <component base="euro.part.tf"/>
  </outline>
</glyph>
<glyph name="G.ss04" format="2">
  <advance width="724"/>
  <anchor x="373" y="0" name="bottomC"/>
  <anchor x="373" y="660" name="top"/>
  <anchor x="454" y="0" name="ogonek"/>
  <anchor x="405" y="0" name="bottom"/>
  <outline>
    <contour>
      <point x="658" y="272" type="curve" smooth="yes"/>
      <point x="658" y="333" type="line"/>
      <point x="362" y="333" type="line"/>
      <point x="362" y="258" type="line"/>
      <point x="624" y="258" type="line"/>
      <point x="582" y="299" type="line"/>
      <point x="582" y="252" type="line" smooth="yes"/>
      <point x="582" y="168"/>
      <point x="529" y="65"/>
      <point x="380" y="65" type="curve" smooth="yes"/>
      <point x="232" y="65"/>
      <point x="152" y="164"/>
      <point x="152" y="330" type="curve" smooth="yes"/>
      <point x="152" y="496"/>
      <point x="242" y="595"/>
      <point x="376" y="595" type="curve" smooth="yes"/>
      <point x="468" y="595"/>
      <point x="538" y="555"/>
      <point x="567" y="479" type="curve"/>
      <point x="640" y="519" type="line"/>
      <point x="589" y="621"/>
      <point x="507" y="670"/>
      <point x="376" y="670" type="curve" smooth="yes"/>
      <point x="191" y="670"/>
      <point x="68" y="539"/>
      <point x="68" y="330" type="curve" smooth="yes"/>
      <point x="68" y="121"/>
      <point x="186" y="-10"/>
      <point x="374" y="-10" type="curve" smooth="yes"/>
      <point x="560" y="-10"/>
      <point x="658" y="103"/>
    </contour>
  </outline>
</glyph>
<glyph name="IJ.ss05" format="2">
  <advance width="633"/>
  <outline>
    <contour>
      <point x="108" y="660" type="line"/>
      <point x="108" y="287" type="line"/>
      <point x="188" y="287" type="line"/>
      <point x="188" y="660" type="line"/>
    </contour>
    <contour>
      <point x="452" y="660" type="line"/>
      <point x="452" y="246" type="line" smooth="yes"/>
      <point x="452" y="127"/>
      <point x="400" y="65"/>
      <point x="313" y="65" type="curve" smooth="yes"/>
      <point x="226" y="65"/>
      <point x="174" y="105"/>
      <point x="189" y="191" type="curve"/>
      <point x="112" y="191" type="line"/>
      <point x="97" y="63"/>
      <point x="170" y="-10"/>
      <point x="313" y="-10" type="curve" smooth="yes"/>
      <point x="446" y="-10"/>
      <point x="532" y="78"/>
      <point x="532" y="226" type="curve" smooth="yes"/>
      <point x="532" y="660" type="line"/>
    </contour>
  </outline>
</glyph>
<glyph name="Lslash.swsh" format="2">
  <advance width="667"/>
  <anchor x="494" y="342" name="center"/>
  <anchor x="407" y="0" name="bottomC"/>
  <anchor x="178" y="660" name="top"/>
  <anchor x="407" y="0" name="bottom"/>
  <anchor x="330" y="700" name="topright"/>
  <anchor x="448" y="0" name="ogonek"/>
  <outline>
    <contour>
      <point x="33" y="279" type="line"/>
      <point x="33" y="196" type="line"/>
      <point x="395" y="398" type="line"/>
      <point x="395" y="481" type="line"/>
    </contour>
    <component base="L.swsh" xOffset="30"/>
  </outline>
</glyph>
<glyph name="Odieresis.titl.001" format="2">
  <advance width="748"/>
  <outline>
    <contour>
      <point x="68" y="330" type="curve" smooth="yes"/>
      <point x="68" y="121"/>
      <point x="186" y="-10"/>
      <point x="374" y="-10" type="curve" smooth="yes"/>
      <point x="562" y="-10"/>
      <point x="680" y="121"/>
      <point x="680" y="330" type="curve" smooth="yes"/>
      <point x="680" y="539"/>
      <point x="562" y="670"/>
      <point x="374" y="670" type="curve" smooth="yes"/>
      <point x="186" y="670"/>
      <point x="68" y="539"/>
    </contour>
    <contour>
      <point x="596" y="330" type="curve" smooth="yes"/>
      <point x="596" y="164"/>
      <point x="511" y="65"/>
      <point x="374" y="65" type="curve" smooth="yes"/>
      <point x="237" y="65"/>
      <point x="152" y="164"/>
      <point x="152" y="330" type="curve" smooth="yes"/>
      <point x="152" y="496"/>
      <point x="237" y="595"/>
      <point x="374" y="595" type="curve" smooth="yes"/>
      <point x="511" y="595"/>
      <point x="596" y="496"/>
    </contour>
    <contour>
      <point x="662" y="616" type="curve" smooth="yes"/>
      <point x="662" y="648"/>
      <point x="640" y="670"/>
      <point x="608" y="670" type="curve" smooth="yes"/>
      <point x="584" y="670"/>
      <point x="565" y="658"/>
      <point x="557" y="639" type="curve"/>
      <point x="589" y="618"/>
      <point x="608" y="598"/>
      <point x="633" y="566" type="curve"/>
      <point x="651" y="575"/>
      <point x="662" y="593"/>
    </contour>
    <contour>
      <point x="140" y="670" type="curve" smooth="yes"/>
      <point x="108" y="670"/>
      <point x="86" y="648"/>
      <point x="86" y="616" type="curve" smooth="yes"/>
      <point x="86" y="593"/>
      <point x="97" y="575"/>
      <point x="115" y="566" type="curve"/>
      <point x="138" y="596"/>
      <point x="157" y="617"/>
      <point x="191" y="639" type="curve"/>
      <point x="183" y="658"/>
      <point x="164" y="670"/>
    </contour>
  </outline>
</glyph>
<glyph name="W.swsh" format="2">
  <advance width="1216"/>
  <anchor x="954" y="0" name="bottomC"/>
  <anchor x="736" y="660" name="top"/>
  <anchor x="986" y="0" name="ogonek"/>
  <anchor x="736" y="0" name="bottom"/>
  <outline>
    <contour>
      <point x="200" y="366" type="line"/>
      <point x="136" y="377"/>
      <point x="90" y="419"/>
      <point x="90" y="480" type="curve" smooth="yes"/>
      <point x="90" y="558"/>
      <point x="148" y="595"/>
      <point x="236" y="595" type="curve" smooth="yes"/>
      <point x="313" y="595" type="line"/>
      <point x="313" y="660" type="line"/>
      <point x="219" y="660" type="line" smooth="yes"/>
      <point x="92" y="660"/>
      <point x="10" y="593"/>
      <point x="10" y="481" type="curve" smooth="yes"/>
      <point x="10" y="382"/>
      <point x="84" y="315"/>
      <point x="169" y="302" type="curve"/>
    </contour>
    <component base="W" xOffset="255"/>
  </outline>
</glyph>
<glyph name="ae.sc" format="2">
  <advance width="813"/>
  <anchor x="403" y="560" name="top"/>
  <anchor x="403" y="0" name="bottom"/>
  <outline>
    <contour>
      <point x="302" y="560" type="line"/>
      <point x="-10" y="0" type="line"/>
      <point x="71" y="0" type="line"/>
      <point x="378" y="560" type="line"/>
    </contour>
    <contour>
      <point x="175" y="250" type="line"/>
      <point x="139" y="181" type="line"/>
      <point x="403" y="181" type="line"/>
      <point x="403" y="250" type="line"/>
    </contour>
    <contour>
      <point x="404" y="69" type="line"/>
      <point x="404" y="0" type="line"/>
      <point x="768" y="0" type="line"/>
      <point x="768" y="69" type="line"/>
    </contour>
    <contour>
      <point x="364" y="560" type="line"/>
      <point x="364" y="0" type="line"/>
      <point x="442" y="0" type="line"/>
      <point x="442" y="560" type="line"/>
    </contour>
    <contour>
      <point x="404" y="318" type="line"/>
      <point x="404" y="249" type="line"/>
      <point x="682" y="249" type="line"/>
      <point x="682" y="318" type="line"/>
    </contour>
    <contour>
      <point x="335" y="560" type="line"/>
      <point x="302" y="492" type="line"/>
      <point x="399" y="492" type="line"/>
      <point x="415" y="491" type="line"/>
      <point x="755" y="491" type="line"/>
      <point x="755" y="560" type="line"/>
    </contour>
  </outline>
</glyph>
<glyph name="bracketleftsuperior" format="2">
  <advance width="202"/>
  <outline>
    <contour>
      <point x="125" y="810" type="line"/>
      <point x="64" y="810" type="line"/>
      <point x="64" y="253" type="line"/>
      <point x="125" y="253" type="line"/>
    </contour>
    <contour>
      <point x="96" y="757" type="line"/>
      <point x="200" y="757" type="line"/>
      <point x="200" y="810" type="line"/>
      <point x="96" y="810" type="line"/>
    </contour>
    <contour>
      <point x="96" y="253" type="line"/>
      <point x="200" y="253" type="line"/>
      <point x="200" y="306" type="line"/>
      <point x="96" y="306" type="line"/>
    </contour>
  </outline>
</glyph>
<glyph name="cent.001" format="2">
  <advance width="547"/>
  <outline>
    <contour>
      <point x="68" y="250" type="curve" smooth="yes"/>
      <point x="68" y="88"/>
      <point x="155" y="-10"/>
      <point x="300" y="-10" type="curve" smooth="yes"/>
      <point x="401" y="-10"/>
      <point x="470" y="46"/>
      <point x="500" y="138" type="curve"/>
      <point x="428" y="163" type="line"/>
      <point x="409" y="92"/>
      <point x="366" y="55"/>
      <point x="298" y="55" type="curve" smooth="yes"/>
      <point x="199" y="55"/>
      <point x="143" y="126"/>
      <point x="143" y="250" type="curve" smooth="yes"/>
      <point x="143" y="374"/>
      <point x="199" y="445"/>
      <point x="298" y="445" type="curve" smooth="yes"/>
      <point x="358" y="445"/>
      <point x="400" y="409"/>
      <point x="419" y="341" type="curve"/>
      <point x="495" y="377" type="line"/>
      <point x="462" y="459"/>
      <point x="398" y="510"/>
      <point x="300" y="510" type="curve" smooth="yes"/>
      <point x="155" y="510"/>
      <point x="68" y="412"/>
    </contour>
    <contour>
      <point x="254" y="18" type="line"/>
      <point x="254" y="-110" type="line"/>
      <point x="330" y="-110" type="line"/>
      <point x="330" y="18" type="line"/>
    </contour>
    <contour>
      <point x="254" y="610" type="line"/>
      <point x="254" y="478" type="line"/>
      <point x="330" y="478" type="line"/>
      <point x="330" y="610" type="line"/>
    </contour>
  </outline>
</glyph>
<glyph name="d.sc" format="2">
  <advance width="648"/>
  <anchor x="283" y="0" name="bottomC"/>
  <anchor x="293" y="560" name="top"/>
  <anchor x="294" y="0" name="ogonek"/>
  <anchor x="297" y="243" name="center"/>
  <anchor x="293" y="0" name="bottom"/>
  <outline>
    <contour>
      <point x="139" y="560" type="line"/>
      <point x="139" y="491" type="line"/>
      <point x="300" y="491" type="line" smooth="yes"/>
      <point x="433" y="491"/>
      <point x="508" y="415"/>
      <point x="508" y="281" type="curve" smooth="yes"/>
      <point x="508" y="146"/>
      <point x="433" y="69"/>
      <point x="300" y="69" type="curve" smooth="yes"/>
      <point x="139" y="69" type="line"/>
      <point x="139" y="0" type="line"/>
      <point x="294" y="0" type="line" smooth="yes"/>
      <point x="480" y="0"/>
      <point x="588" y="100"/>
      <point x="588" y="281" type="curve" smooth="yes"/>
      <point x="588" y="460"/>
      <point x="480" y="560"/>
      <point x="294" y="560" type="curve" smooth="yes"/>
    </contour>
    <contour>
      <point x="94" y="560" type="line"/>
      <point x="94" y="0" type="line"/>
      <point x="174" y="0" type="line"/>
      <point x="174" y="560" type="line"/>
    </contour>
  </outline>
</glyph>
<glyph name="dollar.001" format="2">
  <advance width="595"/>
  <outline>
    <contour>
      <point x="73" y="469" type="curve" smooth="yes"/>
      <point x="73" y="235"/>
      <point x="460" y="354"/>
      <point x="460" y="177" type="curve" smooth="yes"/>
      <point x="460" y="99"/>
      <point x="400" y="66"/>
      <point x="307" y="66" type="curve" smooth="yes"/>
      <point x="222" y="66"/>
      <point x="137" y="123"/>
      <point x="121" y="209" type="curve"/>
      <point x="47" y="171" type="line"/>
      <point x="84" y="60"/>
      <point x="175" y="0"/>
      <point x="305" y="0" type="curve" smooth="yes"/>
      <point x="442" y="0"/>
      <point x="535" y="70"/>
      <point x="535" y="183" type="curve" smooth="yes"/>
      <point x="535" y="421"/>
      <point x="149" y="303"/>
      <point x="149" y="475" type="curve" smooth="yes"/>
      <point x="149" y="548"/>
      <point x="200" y="592"/>
      <point x="300" y="592" type="curve" smooth="yes"/>
      <point x="391" y="592"/>
      <point x="432" y="558"/>
      <point x="469" y="469" type="curve"/>
      <point x="534" y="520" type="line"/>
      <point x="484" y="615"/>
      <point x="420" y="660"/>
      <point x="299" y="660" type="curve" smooth="yes"/>
      <point x="158" y="660"/>
      <point x="73" y="575"/>
    </contour>
    <contour>
      <point x="271" y="36" type="line"/>
      <point x="271" y="-100" type="line"/>
      <point x="338" y="-100" type="line"/>
      <point x="338" y="36" type="line"/>
    </contour>
    <contour>
      <point x="338" y="623" type="line"/>
      <point x="338" y="760" type="line"/>
      <point x="270" y="760" type="line"/>
      <point x="270" y="623" type="line"/>
    </contour>
  </outline>
</glyph>
<glyph name="euro.part.tf" format="2">
  <advance width="604"/>
  <outline>
    <contour>
      <point x="95" y="330" type="curve" smooth="yes"/>
      <point x="95" y="121"/>
      <point x="191" y="-10"/>
      <point x="355" y="-10" type="curve" smooth="yes"/>
      <point x="476" y="-10"/>
      <point x="561" y="56"/>
      <point x="588" y="169" type="curve"/>
      <point x="515" y="196" type="line"/>
      <point x="501" y="107"/>
      <point x="441" y="60"/>
      <point x="356" y="60" type="curve" smooth="yes"/>
      <point x="246" y="60"/>
      <point x="175" y="164"/>
      <point x="175" y="330" type="curve" smooth="yes"/>
      <point x="175" y="497"/>
      <point x="256" y="600"/>
      <point x="365" y="600" type="curve" smooth="yes"/>
      <point x="438" y="600"/>
      <point x="491" y="558"/>
      <point x="503" y="482" type="curve"/>
      <point x="575" y="516" type="line"/>
      <point x="550" y="616"/>
      <point x="471" y="670"/>
      <point x="358" y="670" type="curve" smooth="yes"/>
      <point x="197" y="670"/>
      <point x="95" y="539"/>
    </contour>
  </outline>
</glyph>
<glyph name="five.sc" format="2">
  <advance width="514"/>
  <outline>
    <contour>
      <point x="138" y="310" type="curve"/>
      <point x="137" y="310" type="line"/>
      <point x="141" y="336" type="line"/>
      <point x="159" y="491" type="line"/>
      <point x="432" y="491" type="line"/>
      <point x="432" y="560" type="line"/>
      <point x="95" y="560" type="line"/>
      <point x="59" y="243" type="line"/>
      <point x="126" y="239" type="line"/>
      <point x="152" y="274"/>
      <point x="204" y="291"/>
      <point x="255" y="291" type="curve" smooth="yes"/>
      <point x="333" y="291"/>
      <point x="378" y="249"/>
      <point x="379" y="176" type="curve" smooth="yes"/>
      <point x="380" y="105"/>
      <point x="330" y="61"/>
      <point x="251" y="61" type="curve" smooth="yes"/>
      <point x="171" y="61"/>
      <point x="136" y="98"/>
      <point x="118" y="157" type="curve"/>
      <point x="44" y="117" type="line"/>
      <point x="80" y="34"/>
      <point x="145" y="-8"/>
      <point x="254" y="-8" type="curve" smooth="yes"/>
      <point x="378" y="-8"/>
      <point x="459" y="60"/>
      <point x="459" y="180" type="curve" smooth="yes"/>
      <point x="459" y="286"/>
      <point x="386" y="359"/>
      <point x="273" y="359" type="curve" smooth="yes"/>
      <point x="199" y="359"/>
      <point x="166" y="338"/>
    </contour>
  </outline>
</glyph>
<glyph name="g.sc" format="2">
  <advance width="650"/>
  <anchor x="336" y="0" name="bottomC"/>
  <anchor x="338" y="560" name="top"/>
  <anchor x="403" y="0" name="ogonek"/>
  <anchor x="358" y="0" name="bottom"/>
  <outline>
    <contour>
      <point x="60" y="280" type="curve" smooth="yes"/>
      <point x="60" y="101"/>
      <point x="167" y="-8"/>
      <point x="332" y="-8" type="curve" smooth="yes"/>
      <point x="475" y="-8"/>
      <point x="546" y="71"/>
      <point x="546" y="191" type="curve"/>
      <point x="508" y="199" type="line"/>
      <point x="508" y="113"/>
      <point x="441" y="61"/>
      <point x="339" y="61" type="curve" smooth="yes"/>
      <point x="212" y="61"/>
      <point x="140" y="141"/>
      <point x="140" y="280" type="curve" smooth="yes"/>
      <point x="140" y="418"/>
      <point x="221" y="499"/>
      <point x="338" y="499" type="curve" smooth="yes"/>
      <point x="419" y="499"/>
      <point x="480" y="465"/>
      <point x="505" y="395" type="curve"/>
      <point x="577" y="435" type="line"/>
      <point x="532" y="526"/>
      <point x="458" y="568"/>
      <point x="337" y="568" type="curve" smooth="yes"/>
      <point x="170" y="568"/>
      <point x="60" y="458"/>
    </contour>
    <contour>
      <point x="328" y="219" type="line"/>
      <point x="508" y="219" type="line"/>
      <point x="508" y="145" type="line"/>
      <point x="516" y="127" type="line"/>
      <point x="521" y="0" type="line"/>
      <point x="584" y="0" type="line"/>
      <point x="584" y="285" type="line"/>
      <point x="328" y="285" type="line"/>
    </contour>
  </outline>
</glyph>
<glyph name="g_idieresis" format="2">
  <advance width="798"/>
  <anchor x="665" y="0" name="bottomC"/>
  <anchor x="665" y="500" name="top"/>
  <anchor x="705" y="0" name="ogonek"/>
  <anchor x="665" y="0" name="bottom"/>
  <outline>
    <contour>
      <point x="374" y="460" type="curve"/>
      <point x="424" y="439" type="line"/>
      <point x="422" y="497"/>
      <point x="462" y="522"/>
      <point x="532" y="522" type="curve"/>
      <point x="514" y="592" type="line"/>
      <point x="435" y="592"/>
      <point x="372" y="542"/>
    </contour>
    <component base="gbase" xOffset="-10"/>
    <component base="idieresis" xOffset="532"/>
  </outline>
</glyph>
<glyph name="germandbls.sc" format="2">
  <advance width="625"/>
  <anchor x="403" y="0" name="bottomC"/>
  <anchor x="341" y="560" name="top"/>
  <anchor x="443" y="0" name="ogonek"/>
  <anchor x="341" y="0" name="bottom"/>
  <outline>
    <contour>
      <point x="174" y="0" type="line"/>
      <point x="174" y="366" type="line" smooth="yes"/>
      <point x="174" y="440"/>
      <point x="231" y="491"/>
      <point x="304" y="491" type="curve" smooth="yes"/>
      <point x="462" y="491" type="line"/>
      <point x="304" y="310" type="line"/>
      <point x="355" y="275" type="line"/>
      <point x="550" y="491" type="line"/>
      <point x="550" y="560" type="line"/>
      <point x="299" y="560" type="line" smooth="yes"/>
      <point x="179" y="560"/>
      <point x="94" y="485"/>
      <point x="94" y="371" type="curve" smooth="yes"/>
      <point x="94" y="0" type="line"/>
    </contour>
    <contour>
      <point x="588" y="157" type="curve" smooth="yes"/>
      <point x="588" y="258"/>
      <point x="514" y="310"/>
      <point x="404" y="310" type="curve" smooth="yes"/>
      <point x="304" y="310" type="line"/>
      <point x="304" y="250" type="line"/>
      <point x="380" y="250" type="line" smooth="yes"/>
      <point x="457" y="250"/>
      <point x="508" y="233"/>
      <point x="508" y="158" type="curve" smooth="yes"/>
      <point x="508" y="101"/>
      <point x="463" y="65"/>
      <point x="395" y="65" type="curve" smooth="yes"/>
      <point x="347" y="65"/>
      <point x="309" y="86"/>
      <point x="286" y="110" type="curve"/>
      <point x="251" y="49" type="line"/>
      <point x="277" y="19"/>
      <point x="329" y="-4"/>
      <point x="404" y="-4" type="curve" smooth="yes"/>
      <point x="511" y="-4"/>
      <point x="588" y="58"/>
    </contour>
  </outline>
</glyph>
<glyph name="i.sc" format="2">
  <advance width="268"/>
  <anchor x="134" y="0" name="bottomC"/>
  <anchor x="134" y="560" name="top"/>
  <anchor x="174" y="0" name="ogonek"/>
  <anchor x="134" y="0" name="bottom"/>
  <outline>
    <contour>
      <point x="94" y="560" type="line"/>
      <point x="94" y="0" type="line"/>
      <point x="174" y="0" type="line"/>
      <point x="174" y="560" type="line"/>
    </contour>
  </outline>
</glyph>
<glyph name="indexring" format="2">
  <advance width="910"/>
  <anchor x="455" y="330" name="indexring"/>
  <outline>
    <contour>
      <point x="829" y="330" type="curve" smooth="yes"/>
      <point x="829" y="551"/>
      <point x="679" y="700"/>
      <point x="455" y="700" type="curve" smooth="yes"/>
      <point x="231" y="700"/>
      <point x="81" y="551"/>
      <point x="81" y="330" type="curve" smooth="yes"/>
      <point x="81" y="109"/>
      <point x="231" y="-40"/>
      <point x="455" y="-40" type="curve" smooth="yes"/>
      <point x="679" y="-40"/>
      <point x="829" y="109"/>
    </contour>
    <contour>
      <point x="147" y="330" type="curve" smooth="yes"/>
      <point x="147" y="515"/>
      <point x="272" y="640"/>
      <point x="455" y="640" type="curve" smooth="yes"/>
      <point x="638" y="640"/>
      <point x="763" y="515"/>
      <point x="763" y="330" type="curve" smooth="yes"/>
      <point x="763" y="145"/>
      <point x="638" y="20"/>
      <point x="455" y="20" type="curve" smooth="yes"/>
      <point x="272" y="20"/>
      <point x="147" y="145"/>
    </contour>
  </outline>
</glyph>
<glyph name="j.ogonek" format="2">
  <advance width="290"/>
  <anchor x="120" y="-210" name="bottomC"/>
  <anchor x="180" y="706" name="top"/>
  <anchor x="139" y="-204" name="ogonek"/>
  <anchor x="120" y="-210" name="bottom"/>
  <outline>
    <contour>
      <point x="120" y="656" type="curve" smooth="yes"/>
      <point x="120" y="623"/>
      <point x="147" y="596"/>
      <point x="180" y="596" type="curve" smooth="yes"/>
      <point x="213" y="596"/>
      <point x="240" y="623"/>
      <point x="240" y="656" type="curve" smooth="yes"/>
      <point x="240" y="689"/>
      <point x="213" y="716"/>
      <point x="180" y="716" type="curve" smooth="yes"/>
      <point x="147" y="716"/>
      <point x="120" y="689"/>
    </contour>
    <component base="jdotless.ogonek"/>
  </outline>
</glyph>
<glyph name="jdotless.ogonek" format="2">
  <advance width="313"/>
  <anchor x="120" y="-210" name="bottomC"/>
  <anchor x="180" y="500" name="top"/>
  <anchor x="139" y="-204" name="ogonek"/>
  <anchor x="120" y="-210" name="bottom"/>
  <outline>
    <contour>
      <point x="140" y="500" type="line"/>
      <point x="140" y="-43" type="line" smooth="yes"/>
      <point x="140" y="-113"/>
      <point x="125" y="-137"/>
      <point x="87" y="-137" type="curve" smooth="yes"/>
      <point x="65" y="-137"/>
      <point x="50" y="-134"/>
      <point x="35" y="-126" type="curve"/>
      <point x="20" y="-202" type="line"/>
      <point x="37" y="-210"/>
      <point x="59" y="-215"/>
      <point x="88" y="-215" type="curve" smooth="yes"/>
      <point x="156" y="-215"/>
      <point x="220" y="-176"/>
      <point x="220" y="-51" type="curve" smooth="yes"/>
      <point x="220" y="500" type="line"/>
    </contour>
  </outline>
</glyph>
<glyph name="longs.component" format="2">
  <advance width="256"/>
  <anchor x="129" y="0" name="bottomC"/>
  <anchor x="182" y="730" name="top"/>
  <anchor x="169" y="0" name="ogonek"/>
  <anchor x="150" y="0" name="bottom"/>
  <outline>
    <contour>
      <point x="169" y="0" type="line"/>
      <point x="169" y="576" type="line" smooth="yes"/>
      <point x="169" y="636"/>
      <point x="191" y="662"/>
      <point x="230" y="662" type="curve" smooth="yes"/>
      <point x="243" y="662"/>
      <point x="255" y="657"/>
      <point x="266" y="647" type="curve"/>
      <point x="274" y="719" type="line"/>
      <point x="259" y="731"/>
      <point x="241" y="735"/>
      <point x="217" y="735" type="curve" smooth="yes"/>
      <point x="118" y="735"/>
      <point x="89" y="673"/>
      <point x="89" y="584" type="curve" smooth="yes"/>
      <point x="89" y="0" type="line"/>
    </contour>
  </outline>
</glyph>
<glyph name="n.swsh" format="2">
  <advance width="619"/>
  <anchor x="561" y="-80" name="bottomC"/>
  <anchor x="318" y="500" name="top"/>
  <anchor x="601" y="-80" name="ogonek"/>
  <anchor x="342" y="0" name="bottom"/>
  <outline>
    <contour>
      <point x="138" y="291" type="curve"/>
      <point x="173" y="266" type="line"/>
      <point x="173" y="394"/>
      <point x="255" y="440"/>
      <point x="328" y="440" type="curve" smooth="yes"/>
      <point x="397" y="440"/>
      <point x="451" y="403"/>
      <point x="451" y="292" type="curve" smooth="yes"/>
      <point x="451" y="30" type="line" smooth="yes"/>
      <point x="451" y="-41"/>
      <point x="484" y="-90"/>
      <point x="552" y="-90" type="curve" smooth="yes"/>
      <point x="583" y="-90"/>
      <point x="598" y="-86"/>
      <point x="612" y="-77" type="curve"/>
      <point x="624" y="-18" type="line"/>
      <point x="608" y="-25"/>
      <point x="597" y="-27"/>
      <point x="578" y="-27" type="curve" smooth="yes"/>
      <point x="553" y="-27"/>
      <point x="531" y="-13"/>
      <point x="531" y="27" type="curve" smooth="yes"/>
      <point x="531" y="320" type="line" smooth="yes"/>
      <point x="531" y="449"/>
      <point x="443" y="510"/>
      <point x="336" y="510" type="curve" smooth="yes"/>
      <point x="231" y="510"/>
      <point x="138" y="451"/>
    </contour>
    <contour>
      <point x="93" y="500" type="line"/>
      <point x="93" y="383" type="line"/>
      <point x="93" y="0" type="line"/>
      <point x="173" y="0" type="line"/>
      <point x="173" y="377" type="line"/>
      <point x="170" y="383" type="line"/>
      <point x="163" y="500" type="line"/>
    </contour>
  </outline>
</glyph>
<glyph name="nine.sc" format="2">
  <advance width="535"/>
  <outline>
    <contour>
      <point x="485" y="279" type="curve" smooth="yes"/>
      <point x="485" y="455"/>
      <point x="403" y="568"/>
      <point x="259" y="568" type="curve" smooth="yes"/>
      <point x="130" y="568"/>
      <point x="51" y="499"/>
      <point x="51" y="387" type="curve" smooth="yes"/>
      <point x="51" y="275"/>
      <point x="130" y="206"/>
      <point x="259" y="206" type="curve" smooth="yes"/>
      <point x="314" y="206"/>
      <point x="392" y="235"/>
      <point x="409" y="306" type="curve"/>
      <point x="413" y="306" type="line"/>
      <point x="413" y="300"/>
      <point x="413" y="293"/>
      <point x="413" y="287" type="curve" smooth="yes"/>
      <point x="413" y="154"/>
      <point x="374" y="61"/>
      <point x="256" y="61" type="curve" smooth="yes"/>
      <point x="173" y="61"/>
      <point x="142" y="97"/>
      <point x="128" y="153" type="curve"/>
      <point x="51" y="116" type="line"/>
      <point x="84" y="34"/>
      <point x="149" y="-8"/>
      <point x="256" y="-8" type="curve" smooth="yes"/>
      <point x="403" y="-8"/>
      <point x="485" y="92"/>
    </contour>
    <contour>
      <point x="131" y="387" type="curve" smooth="yes"/>
      <point x="131" y="457"/>
      <point x="179" y="499"/>
      <point x="258" y="499" type="curve" smooth="yes"/>
      <point x="333" y="499"/>
      <point x="383" y="453"/>
      <point x="383" y="386" type="curve" smooth="yes"/>
      <point x="383" y="322"/>
      <point x="332" y="275"/>
      <point x="258" y="275" type="curve" smooth="yes"/>
      <point x="179" y="275"/>
      <point x="131" y="317"/>
    </contour>
  </outline>
</glyph>
<glyph name="one.osf" format="2">
  <advance width="378"/>
  <outline>
    <contour>
      <point x="286" y="560" type="line"/>
      <point x="216" y="560" type="line"/>
      <point x="209" y="509"/>
      <point x="206" y="447"/>
      <point x="206" y="396" type="curve" smooth="yes"/>
      <point x="206" y="0" type="line"/>
      <point x="286" y="0" type="line"/>
      <point x="286" y="406" type="line"/>
    </contour>
    <contour>
      <point x="262" y="542" type="curve"/>
      <point x="216" y="560" type="line"/>
      <point x="179" y="509"/>
      <point x="83" y="461"/>
      <point x="26" y="447" type="curve"/>
      <point x="45" y="380" type="line"/>
      <point x="136" y="402"/>
      <point x="227" y="463"/>
    </contour>
  </outline>
</glyph>
<glyph name="r.sc" format="2">
  <advance width="601"/>
  <anchor x="526" y="0" name="bottomC"/>
  <anchor x="290" y="560" name="top"/>
  <anchor x="563" y="0" name="ogonek"/>
  <anchor x="328" y="0" name="bottom"/>
  <outline>
    <contour>
      <point x="138" y="560" type="line"/>
      <point x="138" y="491" type="line"/>
      <point x="325" y="491" type="line" smooth="yes"/>
      <point x="408" y="491"/>
      <point x="449" y="458"/>
      <point x="449" y="393" type="curve" smooth="yes"/>
      <point x="449" y="328"/>
      <point x="408" y="296"/>
      <point x="325" y="296" type="curve" smooth="yes"/>
      <point x="138" y="296" type="line"/>
      <point x="138" y="228" type="line"/>
      <point x="327" y="228" type="line" smooth="yes"/>
      <point x="450" y="228"/>
      <point x="529" y="290"/>
      <point x="529" y="394" type="curve" smooth="yes"/>
      <point x="529" y="497"/>
      <point x="450" y="560"/>
      <point x="327" y="560" type="curve" smooth="yes"/>
    </contour>
    <contour>
      <point x="94" y="560" type="line"/>
      <point x="94" y="0" type="line"/>
      <point x="174" y="0" type="line"/>
      <point x="174" y="560" type="line"/>
    </contour>
    <contour>
      <point x="303" y="246" type="line"/>
      <point x="471" y="0" type="line"/>
      <point x="563" y="0" type="line"/>
      <point x="371" y="280" type="line"/>
    </contour>
  </outline>
</glyph>
<glyph name="r.sc.ss03" format="2">
  <advance width="594"/>
  <anchor x="498" y="0" name="bottomC"/>
  <anchor x="290" y="560" name="top"/>
  <anchor x="538" y="0" name="ogonek"/>
  <anchor x="328" y="0" name="bottom"/>
  <outline>
    <contour>
      <point x="174" y="0" type="line"/>
      <point x="174" y="228" type="line"/>
      <point x="296" y="228" type="line" smooth="yes"/>
      <point x="387" y="228"/>
      <point x="428" y="195"/>
      <point x="432" y="132" type="curve" smooth="yes"/>
      <point x="437" y="54"/>
      <point x="444" y="21"/>
      <point x="453" y="0" type="curve"/>
      <point x="538" y="0" type="line"/>
      <point x="538" y="3" type="line"/>
      <point x="526" y="22"/>
      <point x="516" y="43"/>
      <point x="510" y="140" type="curve" smooth="yes"/>
      <point x="506" y="199"/>
      <point x="475" y="240"/>
      <point x="406" y="251" type="curve"/>
      <point x="406" y="253" type="line"/>
      <point x="484" y="271"/>
      <point x="529" y="319"/>
      <point x="529" y="395" type="curve" smooth="yes"/>
      <point x="529" y="497"/>
      <point x="450" y="560"/>
      <point x="327" y="560" type="curve" smooth="yes"/>
      <point x="94" y="560" type="line"/>
      <point x="94" y="0" type="line"/>
    </contour>
    <contour>
      <point x="174" y="491" type="line"/>
      <point x="322" y="491" type="line" smooth="yes"/>
      <point x="405" y="491"/>
      <point x="449" y="458"/>
      <point x="449" y="393" type="curve" smooth="yes"/>
      <point x="449" y="328"/>
      <point x="405" y="296"/>
      <point x="322" y="296" type="curve" smooth="yes"/>
      <point x="174" y="296" type="line"/>
    </contour>
  </outline>
</glyph>
<glyph name="seven.osf" format="2">
  <advance width="531"/>
  <outline>
    <contour>
      <point x="10" y="490" type="line"/>
      <point x="441" y="490" type="line"/>
      <point x="428" y="505" type="line"/>
      <point x="261" y="334"/>
      <point x="180" y="122"/>
      <point x="180" y="-100" type="curve"/>
      <point x="260" y="-100" type="line"/>
      <point x="260" y="123"/>
      <point x="319" y="299"/>
      <point x="496" y="485" type="curve"/>
      <point x="496" y="560" type="line"/>
      <point x="10" y="560" type="line"/>
    </contour>
  </outline>
</glyph>
<glyph name="six.osf" format="2">
  <advance width="598"/>
  <outline>
    <contour>
      <point x="61" y="330" type="curve" smooth="yes"/>
      <point x="61" y="133"/>
      <point x="151" y="-10"/>
      <point x="318" y="-10" type="curve" smooth="yes"/>
      <point x="455" y="-10"/>
      <point x="542" y="73"/>
      <point x="542" y="204" type="curve" smooth="yes"/>
      <point x="542" y="335"/>
      <point x="455" y="418"/>
      <point x="323" y="418" type="curve" smooth="yes"/>
      <point x="251" y="418"/>
      <point x="162" y="382"/>
      <point x="140" y="292" type="curve"/>
      <point x="136" y="292" type="line"/>
      <point x="136" y="301"/>
      <point x="136" y="308"/>
      <point x="136" y="315" type="curve" smooth="yes"/>
      <point x="136" y="476"/>
      <point x="202" y="602"/>
      <point x="320" y="602" type="curve" smooth="yes"/>
      <point x="401" y="602"/>
      <point x="438" y="561"/>
      <point x="457" y="497" type="curve"/>
      <point x="529" y="531" type="line"/>
      <point x="488" y="629"/>
      <point x="424" y="670"/>
      <point x="321" y="670" type="curve" smooth="yes"/>
      <point x="173" y="670"/>
      <point x="61" y="551"/>
    </contour>
    <contour>
      <point x="462" y="206" type="curve" smooth="yes"/>
      <point x="462" y="112"/>
      <point x="409" y="58"/>
      <point x="317" y="58" type="curve" smooth="yes"/>
      <point x="230" y="58"/>
      <point x="170" y="117"/>
      <point x="170" y="205" type="curve" smooth="yes"/>
      <point x="170" y="291"/>
      <point x="230" y="350"/>
      <point x="317" y="350" type="curve" smooth="yes"/>
      <point x="409" y="350"/>
      <point x="462" y="297"/>
    </contour>
  </outline>
</glyph>
<glyph name="six.tf" format="2">
  <advance width="604"/>
  <outline>
    <contour>
      <point x="71" y="330" type="curve" smooth="yes"/>
      <point x="71" y="133"/>
      <point x="160" y="-10"/>
      <point x="326" y="-10" type="curve" smooth="yes"/>
      <point x="465" y="-10"/>
      <point x="553" y="73"/>
      <point x="553" y="204" type="curve" smooth="yes"/>
      <point x="553" y="335"/>
      <point x="465" y="418"/>
      <point x="331" y="418" type="curve" smooth="yes"/>
      <point x="259" y="418"/>
      <point x="172" y="382"/>
      <point x="150" y="297" type="curve"/>
      <point x="146" y="297" type="line"/>
      <point x="146" y="308"/>
      <point x="146" y="312"/>
      <point x="146" y="315" type="curve" smooth="yes"/>
      <point x="146" y="472"/>
      <point x="218" y="595"/>
      <point x="324" y="595" type="curve" smooth="yes"/>
      <point x="403" y="595"/>
      <point x="445" y="557"/>
      <point x="465" y="496" type="curve"/>
      <point x="539" y="531" type="line"/>
      <point x="498" y="629"/>
      <point x="434" y="670"/>
      <point x="329" y="670" type="curve" smooth="yes"/>
      <point x="183" y="670"/>
      <point x="71" y="551"/>
    </contour>
    <contour>
      <point x="469" y="205" type="curve" smooth="yes"/>
      <point x="469" y="118"/>
      <point x="416" y="67"/>
      <point x="325" y="67" type="curve" smooth="yes"/>
      <point x="239" y="67"/>
      <point x="181" y="122"/>
      <point x="181" y="205" type="curve" smooth="yes"/>
      <point x="181" y="285"/>
      <point x="239" y="341"/>
      <point x="325" y="341" type="curve" smooth="yes"/>
      <point x="416" y="341"/>
      <point x="469" y="289"/>
    </contour>
  </outline>
</glyph>
<glyph name="sterling.part.tf" format="2">
  <advance width="600"/>
  <outline>
    <contour>
      <point x="130" y="467" type="curve" smooth="yes"/>
      <point x="130" y="423"/>
      <point x="148" y="384"/>
      <point x="198" y="319" type="curve" smooth="yes"/>
      <point x="249" y="253"/>
      <point x="266" y="217"/>
      <point x="266" y="173" type="curve" smooth="yes"/>
      <point x="266" y="105"/>
      <point x="231" y="44"/>
      <point x="153" y="44" type="curve" smooth="yes"/>
      <point x="127" y="44"/>
      <point x="109" y="55"/>
      <point x="109" y="76" type="curve" smooth="yes"/>
      <point x="109" y="94"/>
      <point x="121" y="105"/>
      <point x="152" y="105" type="curve" smooth="yes"/>
      <point x="241" y="105"/>
      <point x="308" y="-10"/>
      <point x="425" y="-10" type="curve" smooth="yes"/>
      <point x="508" y="-10"/>
      <point x="556" y="46"/>
      <point x="556" y="153" type="curve"/>
      <point x="491" y="153" type="line"/>
      <point x="490" y="83"/>
      <point x="468" y="54"/>
      <point x="414" y="54" type="curve" smooth="yes"/>
      <point x="316" y="54"/>
      <point x="282" y="165"/>
      <point x="151" y="165" type="curve" smooth="yes"/>
      <point x="78" y="165"/>
      <point x="37" y="123"/>
      <point x="37" y="76" type="curve" smooth="yes"/>
      <point x="37" y="26"/>
      <point x="77" y="-10"/>
      <point x="143" y="-10" type="curve" smooth="yes"/>
      <point x="263" y="-10"/>
      <point x="324" y="85"/>
      <point x="326" y="168" type="curve" smooth="yes"/>
      <point x="327" y="229"/>
      <point x="310" y="276"/>
      <point x="259" y="349" type="curve" smooth="yes"/>
      <point x="216" y="412"/>
      <point x="204" y="441"/>
      <point x="204" y="480" type="curve" smooth="yes"/>
      <point x="204" y="550"/>
      <point x="252" y="597"/>
      <point x="330" y="597" type="curve" smooth="yes"/>
      <point x="405" y="597"/>
      <point x="439" y="552"/>
      <point x="457" y="476" type="curve"/>
      <point x="526" y="514" type="line"/>
      <point x="498" y="619"/>
      <point x="435" y="670"/>
      <point x="334" y="670" type="curve" smooth="yes"/>
      <point x="215" y="670"/>
      <point x="130" y="585"/>
    </contour>
  </outline>
</glyph>
<glyph name="t.swsh" format="2">
  <advance width="439"/>
  <anchor x="164" y="250" name="center"/>
  <anchor x="300" y="0" name="bottomC"/>
  <anchor x="171" y="730" name="top"/>
  <anchor x="256" y="0" name="bottom"/>
  <anchor x="292" y="767" name="topright"/>
  <anchor x="373" y="17" name="ogonek"/>
  <outline>
    <contour>
      <point x="131" y="620" type="line"/>
      <point x="131" y="124" type="line" smooth="yes"/>
      <point x="132" y="27"/>
      <point x="196" y="-10"/>
      <point x="270" y="-10" type="curve" smooth="yes"/>
      <point x="325" y="-10"/>
      <point x="368" y="7"/>
      <point x="399" y="35" type="curve"/>
      <point x="371" y="102" type="line"/>
      <point x="348" y="79"/>
      <point x="322" y="65"/>
      <point x="286" y="65" type="curve" smooth="yes"/>
      <point x="242" y="65"/>
      <point x="211" y="89"/>
      <point x="211" y="138" type="curve" smooth="yes"/>
      <point x="211" y="642" type="line"/>
    </contour>
    <contour>
      <point x="349" y="500" type="curve" smooth="yes"/>
      <point x="31" y="500" type="line"/>
      <point x="31" y="431" type="line"/>
      <point x="347" y="431" type="line" smooth="yes"/>
      <point x="452" y="431"/>
      <point x="500" y="449"/>
      <point x="539" y="496" type="curve"/>
      <point x="504" y="548" type="line"/>
      <point x="474" y="513"/>
      <point x="432" y="500"/>
    </contour>
  </outline>
</glyph>
<glyph name="t_t.liga" format="2">
  <advance width="774"/>
  <anchor x="519" y="250" name="center"/>
  <anchor x="647" y="767" name="topright"/>
  <anchor x="611" y="0" name="bottom"/>
  <outline>
    <contour>
      <point x="131" y="620" type="line"/>
      <point x="131" y="124" type="line" smooth="yes"/>
      <point x="132" y="27"/>
      <point x="196" y="-10"/>
      <point x="270" y="-10" type="curve" smooth="yes"/>
      <point x="325" y="-10"/>
      <point x="368" y="7"/>
      <point x="399" y="35" type="curve"/>
      <point x="371" y="102" type="line"/>
      <point x="348" y="79"/>
      <point x="322" y="65"/>
      <point x="286" y="65" type="curve" smooth="yes"/>
      <point x="242" y="65"/>
      <point x="211" y="89"/>
      <point x="211" y="138" type="curve" smooth="yes"/>
      <point x="211" y="642" type="line"/>
    </contour>
    <contour>
      <point x="31" y="500" type="line"/>
      <point x="31" y="431" type="line"/>
      <point x="396" y="431" type="line"/>
      <point x="396" y="500" type="line"/>
    </contour>
    <contour>
      <point x="486" y="620" type="line"/>
      <point x="486" y="124" type="line" smooth="yes"/>
      <point x="487" y="27"/>
      <point x="551" y="-10"/>
      <point x="625" y="-10" type="curve" smooth="yes"/>
      <point x="680" y="-10"/>
      <point x="723" y="7"/>
      <point x="754" y="35" type="curve"/>
      <point x="726" y="102" type="line"/>
      <point x="703" y="79"/>
      <point x="677" y="65"/>
      <point x="641" y="65" type="curve" smooth="yes"/>
      <point x="597" y="65"/>
      <point x="566" y="89"/>
      <point x="566" y="138" type="curve" smooth="yes"/>
      <point x="566" y="642" type="line"/>
    </contour>
    <contour>
      <point x="386" y="500" type="line"/>
      <point x="386" y="431" type="line"/>
      <point x="751" y="431" type="line"/>
      <point x="751" y="500" type="line"/>
    </contour>
  </outline>
</glyph>
<glyph name="three.tf" format="2">
  <advance width="604"/>
  <outline>
    <contour>
      <point x="93" y="529" type="curve"/>
      <point x="168" y="494" type="line"/>
      <point x="184" y="555"/>
      <point x="228" y="595"/>
      <point x="308" y="595" type="curve" smooth="yes"/>
      <point x="387" y="595"/>
      <point x="431" y="556"/>
      <point x="430" y="479" type="curve" smooth="yes"/>
      <point x="429" y="405"/>
      <point x="382" y="370"/>
      <point x="293" y="370" type="curve" smooth="yes"/>
      <point x="267" y="370" type="line"/>
      <point x="267" y="295" type="line"/>
      <point x="293" y="295" type="line" smooth="yes"/>
      <point x="394" y="295"/>
      <point x="444" y="268"/>
      <point x="445" y="187" type="curve" smooth="yes"/>
      <point x="446" y="117"/>
      <point x="395" y="65"/>
      <point x="302" y="65" type="curve" smooth="yes"/>
      <point x="204" y="65"/>
      <point x="167" y="113"/>
      <point x="146" y="189" type="curve"/>
      <point x="68" y="148" type="line"/>
      <point x="109" y="45"/>
      <point x="184" y="-10"/>
      <point x="296" y="-10" type="curve" smooth="yes"/>
      <point x="437" y="-10"/>
      <point x="528" y="70"/>
      <point x="528" y="177" type="curve" smooth="yes"/>
      <point x="528" y="261"/>
      <point x="476" y="333"/>
      <point x="389" y="333" type="curve"/>
      <point x="389" y="335" type="line"/>
      <point x="455" y="335"/>
      <point x="513" y="404"/>
      <point x="513" y="498" type="curve" smooth="yes"/>
      <point x="513" y="589"/>
      <point x="442" y="670"/>
      <point x="307" y="670" type="curve" smooth="yes"/>
      <point x="206" y="670"/>
      <point x="125" y="615"/>
    </contour>
  </outline>
</glyph>
<glyph name="uni0162.swsh" format="2">
  <advance width="709"/>
  <anchor x="423" y="0" name="bottom"/>
  <anchor x="407" y="660" name="top"/>
  <anchor x="447" y="0" name="ogonek"/>
  <anchor x="407" y="330" name="center"/>
  <anchor x="436" y="0" name="bottomC"/>
  <outline>
    <contour>
      <point x="447" y="-97" type="curve" smooth="yes"/>
      <point x="447" y="-132"/>
      <point x="422" y="-155"/>
      <point x="390" y="-155" type="curve" smooth="yes"/>
      <point x="362" y="-155"/>
      <point x="337" y="-142"/>
      <point x="321" y="-125" type="curve"/>
      <point x="291" y="-180" type="line"/>
      <point x="319" y="-205"/>
      <point x="354" y="-215"/>
      <point x="401" y="-215" type="curve" smooth="yes"/>
      <point x="473" y="-215"/>
      <point x="518" y="-164"/>
      <point x="518" y="-109" type="curve" smooth="yes"/>
      <point x="518" y="-65"/>
      <point x="497" y="-23"/>
      <point x="440" y="14" type="curve"/>
      <point x="367" y="0" type="line"/>
      <point x="425" y="-39"/>
      <point x="447" y="-59"/>
    </contour>
    <component base="T.swsh"/>
  </outline>
</glyph>
<glyph name="uni0163.swsh" format="2">
  <advance width="419"/>
  <anchor x="164" y="250" name="center"/>
  <anchor x="300" y="0" name="bottomC"/>
  <anchor x="171" y="730" name="top"/>
  <anchor x="256" y="0" name="bottom"/>
  <anchor x="292" y="767" name="topright"/>
  <anchor x="373" y="17" name="ogonek"/>
  <outline>
    <contour>
      <point x="306" y="-97" type="curve" smooth="yes"/>
      <point x="306" y="-132"/>
      <point x="281" y="-155"/>
      <point x="249" y="-155" type="curve" smooth="yes"/>
      <point x="221" y="-155"/>
      <point x="196" y="-142"/>
      <point x="180" y="-125" type="curve"/>
      <point x="150" y="-180" type="line"/>
      <point x="178" y="-205"/>
      <point x="213" y="-215"/>
      <point x="260" y="-215" type="curve" smooth="yes"/>
      <point x="334" y="-215"/>
      <point x="376" y="-164"/>
      <point x="376" y="-108" type="curve" smooth="yes"/>
      <point x="376" y="-54"/>
      <point x="336" y="6"/>
      <point x="248" y="28" type="curve"/>
      <point x="207" y="7" type="line"/>
      <point x="285" y="-32"/>
      <point x="306" y="-55"/>
    </contour>
    <component base="t.swsh"/>
  </outline>
</glyph>
<glyph name="w.sc" format="2">
  <advance width="869"/>
  <anchor x="635" y="0" name="bottomC"/>
  <anchor x="435" y="560" name="top"/>
  <anchor x="667" y="0" name="ogonek"/>
  <anchor x="435" y="0" name="bottom"/>
  <outline>
    <contour>
      <point x="435" y="491" type="line"/>
      <point x="473" y="339" type="line"/>
      <point x="568" y="0" type="line"/>
      <point x="667" y="0" type="line"/>
      <point x="837" y="560" type="line"/>
      <point x="758" y="560" type="line"/>
      <point x="661" y="221" type="line"/>
      <point x="617" y="67" type="line"/>
      <point x="481" y="560" type="line"/>
      <point x="391" y="560" type="line"/>
      <point x="256" y="68" type="line"/>
      <point x="212" y="221" type="line"/>
      <point x="115" y="560" type="line"/>
      <point x="32" y="560" type="line"/>
      <point x="203" y="0" type="line"/>
      <point x="303" y="0" type="line"/>
      <point x="397" y="339" type="line"/>
      <point x="434" y="491" type="line"/>
    </contour>
  </outline>
</glyph>
<glyph name="y.swsh" format="2">
  <advance width="547"/>
  <anchor x="123" y="-210" name="bottomC"/>
  <anchor x="273" y="500" name="top"/>
  <anchor x="164" y="-210" name="ogonek"/>
  <anchor x="159" y="-210" name="bottom"/>
  <outline>
    <contour>
      <point x="283" y="-84" type="curve" smooth="yes"/>
      <point x="499" y="460" type="line" smooth="yes"/>
      <point x="518" y="509"/>
      <point x="540" y="527"/>
      <point x="577" y="527" type="curve" smooth="yes"/>
      <point x="599" y="527"/>
      <point x="609" y="523"/>
      <point x="622" y="513" type="curve"/>
      <point x="638" y="564" type="line"/>
      <point x="621" y="581"/>
      <point x="597" y="589"/>
      <point x="560" y="589" type="curve" smooth="yes"/>
      <point x="496" y="589"/>
      <point x="457" y="552"/>
      <point x="425" y="468" type="curve" smooth="yes"/>
      <point x="315" y="184" type="line"/>
      <point x="279" y="85" type="line"/>
      <point x="248" y="174" type="line"/>
      <point x="123" y="500" type="line"/>
      <point x="32" y="500" type="line"/>
      <point x="191" y="120" type="line"/>
      <point x="241" y="1" type="line"/>
      <point x="215" y="-64" type="line" smooth="yes"/>
      <point x="190" y="-130"/>
      <point x="159" y="-145"/>
      <point x="124" y="-145" type="curve" smooth="yes"/>
      <point x="96" y="-145"/>
      <point x="66" y="-137"/>
      <point x="43" y="-105" type="curve"/>
      <point x="15" y="-173" type="line"/>
      <point x="43" y="-203"/>
      <point x="75" y="-215"/>
      <point x="125" y="-215" type="curve" smooth="yes"/>
      <point x="199" y="-215"/>
      <point x="244" y="-182"/>
    </contour>
  </outline>
</glyph>
<glyph name="ydieresis.titl.sc" format="2">
  <advance width="527"/>
  <outline>
    <contour>
      <point x="379" y="515" type="curve" smooth="yes"/>
      <point x="379" y="545"/>
      <point x="358" y="565"/>
      <point x="327" y="565" type="curve" smooth="yes"/>
      <point x="296" y="565"/>
      <point x="275" y="545"/>
      <point x="275" y="515" type="curve" smooth="yes"/>
      <point x="275" y="486"/>
      <point x="296" y="466"/>
      <point x="327" y="466" type="curve" smooth="yes"/>
      <point x="358" y="466"/>
      <point x="379" y="486"/>
    </contour>
    <contour>
      <point x="260" y="515" type="curve" smooth="yes"/>
      <point x="260" y="545"/>
      <point x="239" y="565"/>
      <point x="208" y="565" type="curve" smooth="yes"/>
      <point x="177" y="565"/>
      <point x="156" y="545"/>
      <point x="156" y="515" type="curve" smooth="yes"/>
      <point x="156" y="486"/>
      <point x="177" y="466"/>
      <point x="208" y="466" type="curve" smooth="yes"/>
      <point x="239" y="466"/>
      <point x="260" y="486"/>
    </contour>
    <contour>
      <point x="427" y="560" type="line"/>
      <point x="318" y="372" type="line"/>
      <point x="267" y="283" type="line"/>
      <point x="217" y="372" type="line"/>
      <point x="108" y="560" type="line"/>
      <point x="17" y="560" type="line"/>
      <point x="227" y="215" type="line"/>
      <point x="227" y="0" type="line"/>
      <point x="307" y="0" type="line"/>
      <point x="307" y="215" type="line"/>
      <point x="517" y="560" type="line"/>
    </contour>
  </outline>
</glyph>
<glyph name="yen.tf" format="2">
  <advance width="604"/>
  <outline>
    <contour>
      <point x="26" y="660" type="line"/>
      <point x="265" y="264" type="line"/>
      <point x="339" y="264" type="line"/>
      <point x="578" y="660" type="line"/>
      <point x="485" y="660" type="line"/>
      <point x="351" y="418" type="line"/>
      <point x="303" y="318" type="line"/>
      <point x="301" y="318" type="line"/>
      <point x="253" y="417" type="line"/>
      <point x="119" y="660" type="line"/>
    </contour>
    <contour>
      <point x="337" y="0" type="line"/>
      <point x="337" y="257" type="line"/>
      <point x="267" y="257" type="line"/>
      <point x="267" y="0" type="line"/>
    </contour>
    <contour>
      <point x="530" y="107" type="line"/>
      <point x="530" y="162" type="line"/>
      <point x="75" y="162" type="line"/>
      <point x="75" y="107" type="line"/>
    </contour>
    <contour>
      <point x="530" y="237" type="line"/>
      <point x="530" y="297" type="line"/>
      <point x="400" y="297" type="line"/>
      <point x="302" y="287" type="line"/>
      <point x="204" y="297" type="line"/>
      <point x="75" y="297" type="line"/>
      <point x="75" y="237" type="line"/>
    </contour>
  </outline>
</glyph>
<glyph name="zero.osf.zero" format="2">
  <advance width="598"/>
  <outline>
    <contour>
      <point x="438" y="477" type="line"/>
      <point x="391" y="512" type="line"/>
      <point x="167" y="74" type="line"/>
      <point x="218" y="48" type="line"/>
    </contour>
    <component base="zero.osf"/>
  </outline>
</glyph>
<glyph name="zero.sc" format="2">
  <advance width="570"/>
  <outline>
    <contour>
      <point x="53" y="280" type="curve" smooth="yes"/>
      <point x="53" y="91"/>
      <point x="134" y="-10"/>
      <point x="285" y="-10" type="curve" smooth="yes"/>
      <point x="436" y="-10"/>
      <point x="517" y="91"/>
      <point x="517" y="280" type="curve" smooth="yes"/>
      <point x="517" y="469"/>
      <point x="436" y="570"/>
      <point x="285" y="570" type="curve" smooth="yes"/>
      <point x="134" y="570"/>
      <point x="53" y="469"/>
    </contour>
    <contour>
      <point x="437" y="280" type="curve" smooth="yes"/>
      <point x="437" y="134"/>
      <point x="384" y="59"/>
      <point x="285" y="59" type="curve" smooth="yes"/>
      <point x="186" y="59"/>
      <point x="133" y="134"/>
      <point x="133" y="280" type="curve" smooth="yes"/>
      <point x="133" y="426"/>
      <point x="186" y="501"/>
      <point x="285" y="501" type="curve" smooth="yes"/>
      <point x="384" y="501"/>
      <point x="437" y="426"/>
    </contour>
  </outline>
</glyph>
